SplineFontDB: 3.0
FontName: Experiment3-Latin
FullName: Experiment3-Latin
FamilyName: Experiment3-Latin
Weight: Regular
Copyright: Copyright (c) 2015, Pathum Egodawatta
UComments: "2015-9-29: Created with FontForge (http://fontforge.org)"
Version: 0.001
ItalicAngle: 0
UnderlinePosition: 100
UnderlineWidth: 49
Ascent: 1000
Descent: 0
InvalidEm: 0
LayerCount: 3
Layer: 0 0 "Back" 1
Layer: 1 0 "Fore" 0
Layer: 2 0 "Back 2" 1
PreferredKerning: 4
XUID: [1021 779 -1439063335 14876943]
FSType: 0
OS2Version: 0
OS2_WeightWidthSlopeOnly: 0
OS2_UseTypoMetrics: 1
CreationTime: 1443542790
ModificationTime: 1456938465
PfmFamily: 17
TTFWeight: 400
TTFWidth: 5
LineGap: 122
VLineGap: 0
OS2TypoAscent: 129
OS2TypoAOffset: 1
OS2TypoDescent: 0
OS2TypoDOffset: 1
OS2TypoLinegap: 122
OS2WinAscent: 129
OS2WinAOffset: 1
OS2WinDescent: -161
OS2WinDOffset: 1
HheadAscent: 29
HheadAOffset: 1
HheadDescent: 183
HheadDOffset: 1
OS2CapHeight: 0
OS2XHeight: 0
OS2Vendor: 'PfEd'
MarkAttachClasses: 1
DEI: 91125
LangName: 1033
Encoding: ISO8859-1
UnicodeInterp: none
NameList: Adobe Glyph List
DisplaySize: -128
AntiAlias: 1
FitToEm: 1
WinInfo: 90 9 6
BeginPrivate: 0
EndPrivate
Grid
-1000 566 m 0
 2000 566 l 1024
-1000 522 m 0
 2000 522 l 1024
-1000 822.174682617 m 0
 2000 822.174682617 l 1024
-1000 801 m 0
 2000 801 l 1024
-1000 62 m 0
 2000 62 l 1024
2000 766 m 1024
-1000 1143 m 0
 2000 1143 l 1024
665 1500 m 0
 665 -500 l 1024
149 1500 m 0
 149 -500 l 1024
-1000 499 m 0
 2000 499 l 1024
-1000 612 m 0
 2000 612 l 1024
EndSplineSet
AnchorClass2: "thn_ubufibi" "" 
BeginChars: 259 69

StartChar: a
Encoding: 97 97 1
AltUni2: 0000aa.ffffffff.0
GlifName: uni0061
Width: 664
VWidth: 153
Flags: HMW
LayerCount: 3
Back
SplineSet
72.54296875 130 m 0
 60.3515625 371 256.012695312 536.211914062 413.866210938 584 c 0
 519.569335938 616 623.274414062 606 623.274414062 606 c 1
 577.639648438 462 l 1
 577.639648438 462 492.86328125 558.860351562 371.284179688 514 c 0
 278.14453125 479.633789062 185.5390625 342.93359375 194.713867188 165 c 0
 197.565429688 109.698242188 221.962890625 70 264.2578125 70 c 0
 366.548828125 70 464.30859375 278 477.538085938 329 c 1
 488.485351562 289 l 1
 488.485351562 289 401.209960938 -14 221.209960938 -14 c 0
 130.209960938 -14 77.314453125 35.685546875 72.54296875 130 c 0
622.615234375 603 m 1
 608.587890625 552.703125 577.754882812 433.009765625 555.661132812 305 c 0
 547.747070312 259.147460938 538.688476562 200.415039062 538.462890625 156 c 0
 538.26953125 118.122070312 544.206054688 84.6318359375 576.501953125 83.84765625 c 0
 607.883789062 83.0849609375 637.622070312 103.797851562 671.141601562 145 c 1
 679.265625 120 l 1
 636.854492188 22 553.4609375 -14.5947265625 495.73828125 -14 c 0
 394.352539062 -12.9560546875 434.083984375 103 468.487304688 232 c 1
 474.202148438 251.529296875 461.706054688 272.21484375 469.794921875 302 c 1
 484.334960938 355.543945312 503.764648438 438.495117188 515.083007812 597 c 1
 622.615234375 603 l 1
EndSplineSet
Fore
SplineSet
56.5810546875 130 m 0
 14.798828125 371 190.173828125 536.211914062 342.16015625 584 c 0
 443.93359375 616 548.8671875 606 548.8671875 606 c 1
 524.596679688 432 l 1
 524.596679688 432 424.244140625 558.860351562 308.172851562 514 c 0
 219.252929688 479.633789062 143.431640625 342.93359375 174.454101562 165 c 0
 184.095703125 109.698242188 213.368164062 70 255.663085938 70 c 0
 357.954101562 70 430.174804688 278 437.141601562 329 c 1
 453.000976562 289 l 1
 453.000976562 289 402.928710938 -14 222.928710938 -14 c 0
 131.928710938 -14 72.9326171875 35.685546875 56.5810546875 130 c 0
548.576171875 603 m 1
 540.724609375 552.703125 524.587890625 433.009765625 518.211914062 305 c 0
 512.083467411 181.977787233 541.495662255 53.5300749143 568.485351562 1.84765625 c 5
 515.302734375 -1.451171875 472.142578125 -4.9287109375 419.913085938 -16 c 1
 423.487304688 25.0439453125 421.4375 103 440.000976562 232 c 1
 443.318359375 251.529296875 428.282226562 272.21484375 432.713867188 302 c 1
 440.6796875 355.543945312 429.923828125 478.495117188 411.780273438 597 c 1
 548.576171875 603 l 1
EndSplineSet
Layer: 2
Colour: ff0000
EndChar

StartChar: n
Encoding: 110 110 2
GlifName: uni006E_
Width: 692
VWidth: 79
Flags: HMW
LayerCount: 3
Back
SplineSet
55.9150390625 565 m 5
 191.694335938 568.5390625 330.189453125 608 332.20703125 608 c 5
 319.129467973 556.914743063 275.197265625 451.3828125 239.98828125 318 c 5
 238.1875 308.47265625 246.482231126 298.802317088 244.890625 289 c 4
 229.51171875 194.287109375 217.052734375 122.508789062 210 -2 c 5
 165 -2 113 -4 78 -9 c 5
 108.390625 85 146.206054688 196.224609375 163.651367188 288 c 4
 197.953125 468.452148438 205.73046875 522.993164062 52.158203125 524 c 5
 55.9150390625 565 l 5
197.052734375 208 m 1
 268.04296875 446 446.180664062 613.430664062 572.912109375 611 c 0
 632.57421875 609.85546875 660.142578125 586.135742188 659.340820312 523 c 0
 658.211914062 434.248046875 611.395507812 327.91015625 591.078125 220 c 0
 584.63671875 185.7890625 561.533203125 79.2353515625 616 78.45703125 c 0
 649.146484375 77.9833984375 686.661132812 103.391601562 708.639648438 140 c 1
 719.763671875 110 l 1
 677.4375 32.1015625 603.427734375 -23.4658203125 520 -24.3388671875 c 0
 465.033203125 -24.9140625 447.287109375 5.5048828125 456.749023438 58 c 0
 467.75390625 119.057617188 534.840820312 270.501953125 541.528320312 426 c 0
 543.86328125 480.287109375 532.985351562 512.572265625 490 512.791992188 c 0
 384.563476562 513.331054688 238.854492188 291.228515625 223.528320312 184 c 9
 197.052734375 208 l 1
EndSplineSet
Fore
SplineSet
102.858398438 595 m 1
 236.975585938 608.5390625 254.30859375 618 256.326171875 618 c 1
 249.521484375 566.915039062 219.774414062 451.3828125 200.942382812 318 c 1
 200.311523438 308.47265625 209.793945312 298.802734375 209.40625 289 c 0
 205.65625 194.287109375 202.010742188 122.508789062 210.245117188 -2 c 1
 165.245117188 -2 113.491210938 -4 79.10546875 -9 c 1
 97.9541015625 85 122.33984375 196.182617188 128.2890625 288 c 0
 141.118164062 485.9765625 121.96484375 535.442382812 102.858398438 595 c 1
171.513671875 208 m 5
 213.28125 446 370.861328125 613.430664062 497.890625 611 c 4
 557.693359375 609.85546875 588.173828125 586.135742188 595.124023438 523 c 4
 604.892578125 434.248046875 571.805664062 327.784179688 564.065429688 220 c 4
 558.736328125 145.7890625 575.48828125 49.2353515625 616.189453125 -1.54296875 c 4
 442.98828125 -24.3388671875 l 21
 431.7109375 32.3212890625 498.540039062 309.19921875 489.221679688 426 c 4
 484.891601562 480.287109375 470.049804688 512.572265625 427.037109375 512.791992188 c 4
 321.534179688 513.331054688 203.095703125 291.228515625 200.935546875 184 c 13
 171.513671875 208 l 5
EndSplineSet
Layer: 2
SplineSet
39.9150390625 555 m 5
 175.694335938 558.5390625 324.189453125 608 326.20703125 608 c 5
 312.1953125 553.265625 262.763671875 436.028320312 238.890625 289 c 4
 223.51171875 194.287109375 217.052734375 122.508789062 220 -2 c 5
 175 -2 110 -10 65 -15 c 5
 101.390625 79 152.206054688 196.224609375 169.651367188 288 c 4
 203.953125 468.452148438 209.73046875 519.993164062 46.158203125 504 c 5
 39.9150390625 555 l 5
193.052734375 208 m 5
 264.04296875 456 446.180664062 613.430664062 572.912109375 611 c 4
 632.57421875 609.85546875 660.142578125 586.135742188 659.340820312 523 c 4
 658.211914062 434.248046875 587.065429688 289.254882812 576.078125 180 c 4
 572.63671875 145.7890625 561.533203125 79.1513671875 596 78.45703125 c 4
 633.142578125 77.708984375 689.661132812 141.391601562 709.639648438 178 c 5
 719.763671875 139 l 5
 690.4375 72.1015625 603.427734375 -23.4658203125 520 -24.3388671875 c 4
 465.033203125 -24.9140625 437.287109375 5.5048828125 446.749023438 58 c 4
 457.75390625 119.057617188 534.840820312 260.501953125 541.528320312 426 c 4
 543.72265625 480.29296875 532.985351562 512.572265625 490 512.791992188 c 4
 384.563476562 513.331054688 238.854492188 291.228515625 223.528320312 184 c 13
 193.052734375 208 l 5
EndSplineSet
EndChar

StartChar: d
Encoding: 100 100 3
GlifName: uni0064
Width: 726
VWidth: 79
Flags: HMWO
LayerCount: 3
Back
SplineSet
83.83984375 231 m 0
 106.8203125 404.12890625 290.087890625 632.228515625 623.96484375 609 c 1
 574.448242188 489 l 5
 574.448242188 489 483.092773438 560.46875 381.1484375 532 c 0
 279.233398438 503.540039062 218.166015625 377 202.716796875 277 c 0
 186.720703125 173.4609375 219.40625 81.611328125 288.098632812 83 c 0
 403.954101562 85.3427734375 508.501953125 346 519.0234375 400 c 1
 541.793945312 351 l 1
 506.74609375 247 414.81640625 -18 231.81640625 -18 c 0
 106.81640625 -18 66.451171875 100 83.83984375 231 c 0
417.0234375 824 m 1
 552.802734375 827.5390625 704.297851562 877 706.315429688 877 c 1
 696.529296875 838.772460938 676.466796875 770.05859375 657.900390625 682 c 0
 642.681640625 609.8203125 617.161132812 457.426757812 607.999023438 401 c 0
 598.953125 345.288085938 589.879882812 245.5078125 584.530273438 170.99609375 c 0
 581.26953125 125.57421875 591.78125 81.193359375 621.108398438 80.0615234375 c 0
 649.740234375 78.95703125 682.584960938 99.796875 728.748046875 168 c 1
 741.872070312 141 l 1
 732.228515625 117.895507812 638.736328125 -29.1474609375 536.108398438 -23.55859375 c 0
 476.521484375 -20.3134765625 461.291992188 15.7021484375 463.426757812 61 c 0
 465.799804688 111.359375 499.126953125 211.096679688 511.447265625 270 c 0
 521.796875 307.05078125 501.370117188 301.6484375 506.759765625 330 c 0
 516.56640625 381.587890625 557.077148438 622.171875 558.880859375 685 c 0
 560.982421875 758.215820312 520.668945312 780.124023438 403.266601562 783 c 1
 417.0234375 824 l 1
EndSplineSet
Fore
SplineSet
55.4765625 231 m 0
 57.19921875 404.12890625 212.459960938 632.228515625 549.189453125 609 c 1
 514.40625 489 l 1
 514.40625 489 414.275390625 560.46875 315.827148438 532 c 0
 217.40625 503.540039062 171.875976562 377 168.705078125 277 c 0
 165.422851562 173.4609375 209.385742188 81.611328125 277.907226562 83 c 0
 393.475585938 85.3427734375 466.018554688 346 469.909179688 400 c 1
 498.696289062 351 l 1
 476.41796875 247 417.026367188 -18 234.026367188 -18 c 0
 109.026367188 -18 54.1728515625 100 55.4765625 231 c 0
439.709960938 874 m 1
 575.0546875 877.5390625 595.387695312 887 597.405273438 887 c 1
 592.313476562 848.772460938 581.915039062 770.05859375 574.161132812 682 c 0
 567.8046875 609.8203125 560.99609375 457.426757812 558.762695312 401 c 0
 553.012030911 255.77217642 594.336914062 78.240234375 623.556640625 9.0615234375 c 5
 571.71484375 4.4892578125 521.220703125 -4.060546875 471.45703125 -14.55859375 c 5
 471.80078125 61.51953125 471.490019669 191.207257268 478.295898438 270 c 0
 484.095703125 307.05078125 464.33203125 301.6484375 466.241210938 330 c 0
 469.712890625 381.587890625 480.68359375 622.171875 474.7734375 685 c 0
 466.495117188 772.98828125 452.782226562 841.44140625 439.709960938 874 c 1
EndSplineSet
Layer: 2
EndChar

StartChar: h
Encoding: 104 104 4
GlifName: uni0068
Width: 670
VWidth: 79
Flags: HMW
LayerCount: 3
Back
SplineSet
8.9150390625 794 m 1
 144.694335938 797.5390625 314.189453125 877 316.20703125 877 c 1
 306.420898438 838.772460938 286.358398438 770.05859375 267.791992188 682 c 0
 252.573242188 609.8203125 202.052734375 347.426757812 192.890625 291 c 0
 177.51171875 196.287109375 176.052734375 124.508789062 179 0 c 1
 134 0 69 -8 24 -13 c 1
 60.390625 81 111.206054688 238.224609375 128.651367188 330 c 0
 138.458007812 381.587890625 173.968866724 612.171541269 175.772460938 675 c 0
 177.874023438 748.215820312 142.560546875 760.124023438 25.158203125 743 c 1
 8.9150390625 794 l 1
149.052734375 208 m 1
 220.04296875 456 402.180664062 613.430664062 528.912109375 611 c 0
 588.57421875 609.85546875 616.142578125 586.135742188 615.340820312 523 c 0
 614.163338474 430.400072281 536.765397836 266.577687313 530.998462368 166.00000346 c 0
 528.350969071 119.826651019 529.448242188 78.4365234375 565 77.830078125 c 0
 593.236261206 77.3484212589 631.922851562 108.22265625 675.639648438 172 c 1
 685.763671875 139 l 1
 666.4375 92.1015625 579.427734375 -23.4658203125 476 -24.3388671875 c 0
 421.03193102 -24.802859763 393.287109375 5.5048828125 402.749023438 58 c 0
 413.75390625 119.057617188 490.840820312 260.501953125 497.528320312 426 c 0
 499.72265625 480.29296875 488.985351562 512.572265625 446 512.791992188 c 0
 340.563476562 513.331054688 194.854492188 291.228515625 179.528320312 184 c 9
 149.052734375 208 l 1
EndSplineSet
Fore
SplineSet
131.513671875 208 m 1
 173.28125 446 330.861328125 613.430664062 457.890625 611 c 0
 517.693359375 609.85546875 548.173828125 586.135742188 555.124023438 523 c 0
 564.892578125 434.248046875 531.805664062 327.784179688 524.065429688 220 c 0
 518.736328125 145.7890625 535.48828125 49.2353515625 576.189453125 -1.54296875 c 0
 402.98828125 -24.3388671875 l 17
 391.7109375 32.3212890625 458.540039062 309.19921875 449.221679688 426 c 0
 444.891601562 480.287109375 430.049804688 512.572265625 387.037109375 512.791992188 c 0
 281.534179688 513.331054688 163.095703125 291.228515625 160.935546875 184 c 9
 131.513671875 208 l 1
64.76171875 841 m 1
 164.896484375 856 216.861328125 875 218.87890625 875 c 1
 193.227539062 772.525390625 164.166015625 525.170898438 159.130859375 398 c 0
 155.077148438 295.588867188 148.586914062 88.0703125 203.697265625 -12.9384765625 c 1
 24.724609375 -35 l 0
 41.1171875 79.5869140625 102.942382812 443.615234375 87.73828125 669 c 0
 81.365234375 763.45703125 75.7080078125 785.953125 64.76171875 841 c 1
EndSplineSet
Layer: 2
EndChar

StartChar: e
Encoding: 101 101 5
GlifName: uni0065
Width: 593
VWidth: 153
Flags: HMW
LayerCount: 3
Back
SplineSet
72.318359375 230 m 4
 101.4609375 469 278.095703125 596.091796875 406.3828125 611 c 4
 526.8515625 625 620.58203125 560.364257812 596.545898438 428 c 4
 578.788085938 330.211914062 467.7265625 278.8671875 351 262 c 4
 281.619940479 251.974462987 220.666992188 252.940429688 163.192382812 256 c 5
 171.65625 304 l 5
 171.65625 304 298.143554688 296.783203125 379 320 c 4
 438.715820312 337.146484375 483 387 484 451 c 28
 485 523 442.51171875 558.233398438 372.56640625 551 c 4
 297.8671875 543.275390625 232.462890625 462 208.01171875 349 c 4
 186.391601562 249.08203125 179.75390625 83 313.345703125 58 c 4
 412.995117188 39 514.985351562 117 516.985351562 117 c 5
 534.990234375 83 l 5
 512.993164062 56 415.642578125 -23.6279296875 288.296875 -26 c 4
 180.944335938 -28 47.34765625 26 72.318359375 230 c 4
EndSplineSet
Fore
SplineSet
44.078125 230 m 4
 43.875 469 204.905273438 596.091796875 331.361328125 611 c 4
 450.111328125 625 551.778320312 560.364257812 543.994140625 428 c 4
 538.243164062 330.211914062 433.486328125 278.8671875 318.830078125 262 c 4
 250.681640625 251.974609375 189.609375 252.940429688 131.759765625 256 c 5
 134.330078125 304 l 5
 134.330078125 304 261.703125 296.783203125 339.708984375 320 c 4
 397.319335938 337.146484375 435.482421875 387 428.624023438 451 c 28
 420.783203125 523 373.969726562 558.233398438 304.912109375 551 c 4
 231.161132812 543.275390625 175.736328125 462 165.16015625 349 c 4
 155.80859375 249.08203125 169.5625 83 306.224609375 58 c 4
 408.206054688 39 500.619140625 117 502.619140625 117 c 5
 524.798828125 83 l 5
 506.1171875 56 418.543945312 -23.6279296875 291.489257812 -26 c 4
 184.381835938 -28 44.1552734375 26 44.078125 230 c 4
EndSplineSet
Layer: 2
EndChar

StartChar: i
Encoding: 105 105 6
GlifName: uni0069
Width: 304
VWidth: 79
Flags: HMW
LayerCount: 3
Back
SplineSet
151.729492188 782 m 0
 159.134765625 824 198.072265625 852 239.072265625 852 c 0
 289.072265625 852 307.1953125 813 299.790039062 771 c 0
 292.383789062 729 253.447265625 701 212.447265625 701 c 0
 171.447265625 701 144.32421875 740 151.729492188 782 c 0
25.7568359375 555 m 5
 161.536132812 558.5390625 300.03125 608 302.048828125 608 c 5
 283.990234375 537.456054688 213.295898438 313.22265625 198.114257812 164.201171875 c 4
 195.40625 123.455078125 199.672851562 78.9599609375 234.841796875 78.45703125 c 4
 267.98828125 77.9833984375 305.502929688 103.391601562 327.481445312 140 c 5
 338.60546875 110 l 5
 296.279296875 32.1015625 212.26953125 -23.4658203125 128.841796875 -24.3388671875 c 4
 73.875 -24.9140625 56.12890625 5.5048828125 65.5908203125 58 c 4
 73.7119140625 103.056640625 115.094726562 197.333984375 138.915039062 306.138671875 c 4
 145.69921875 342.459960938 151.017578125 373.564453125 153.645507812 399.836914062 c 4
 161.72265625 491.495117188 140.201171875 526.309570312 22 514 c 5
 25.7568359375 555 l 5
EndSplineSet
Fore
SplineSet
72.8583984375 595 m 1
 206.975585938 608.5390625 224.30859375 618 226.326171875 618 c 1
 198.53515625 484.442382812 152.049804688 255.981445312 180.245117188 -2 c 1
 135.245117188 -2 83.4912109375 -4 49.10546875 -9 c 1
 67.9541015625 85 92.33984375 196.182617188 98.2890625 288 c 0
 111.118164062 485.9765625 91.96484375 535.442382812 72.8583984375 595 c 1
55.7119140625 782 m 0
 57.9599609375 824 93.4599609375 852 134.459960938 852 c 0
 184.459960938 852 207.37109375 813 205.123046875 771 c 0
 202.874023438 729 167.375 701 126.375 701 c 0
 85.375 701 53.4638671875 740 55.7119140625 782 c 0
EndSplineSet
Layer: 2
EndChar

StartChar: s
Encoding: 115 115 7
GlifName: uni0073
Width: 528
VWidth: 153
Flags: HMW
LayerCount: 3
Back
SplineSet
27.234375 1 m 1
 34.4052734375 36 42.5146484375 107 52.09375 167 c 1
 66.6572265625 132.356445312 100.985351562 73.2158203125 204.34765625 60 c 0
 265.153320312 52.2255859375 317.404296875 68.3056640625 327.216796875 114 c 4
 353.844726562 238 102.649414062 238.254882812 122.646484375 421 c 0
 135.32421875 536.853515625 232.154296875 587.8359375 370 604.802734375 c 0
 423.291992188 611.362304688 490.26953125 609 490.26953125 609 c 1
 480.569335938 571 468.049804688 490 460.0546875 431 c 1
 432 485 364.700195312 545.184570312 287.861328125 538 c 0
 221.8515625 531.828125 208.940429688 482.745117188 218.16796875 438 c 0
 241.551757812 324.610351562 488.668945312 304.166992188 421 117.602539062 c 0
 392.58203125 39.25390625 296.84375 -15 187.591796875 -15 c 0
 74.591796875 -15 27.234375 1 27.234375 1 c 1
EndSplineSet
Fore
SplineSet
27.111328125 1 m 1
 29.9853515625 36 29.376953125 107 31.5888671875 167 c 1
 50.40625 132.356445312 91.9951171875 73.2158203125 196.98046875 60 c 0
 258.741210938 52.2255859375 309.017578125 68.3056640625 313.219726562 114 c 4
 324.622070312 238 73.3955078125 238.254882812 70.9541015625 421 c 0
 69.4072265625 536.853515625 159.977539062 587.8359375 295.739257812 604.802734375 c 0
 348.2265625 611.362304688 415.494140625 609 415.494140625 609 c 1
 410.458984375 571 407.885742188 490 407.134765625 431 c 1
 372.44921875 485 297.759765625 545.184570312 221.803710938 538 c 0
 156.551757812 531.828125 149.666992188 482.745117188 164.388671875 438 c 0
 201.694335938 324.610351562 451.322265625 304.166992188 406.560546875 117.602539062 c 0
 387.762695312 39.25390625 298.685546875 -15 189.43359375 -15 c 0
 76.43359375 -15 27.111328125 1 27.111328125 1 c 1
EndSplineSet
Layer: 2
EndChar

StartChar: o
Encoding: 111 111 8
AltUni2: 0000ba.ffffffff.0
GlifName: o
Width: 698
VWidth: 153
Flags: HMW
LayerCount: 3
Back
SplineSet
85.3759765625 261 m 0
 58.0693359375 105.137695312 99.35546875 -25 256.826171875 -28 c 0
 479.1171875 -32.2353515625 589.6875 147.506835938 624.129882812 294 c 0
 681.579101562 538.345703125 545.271484375 613.396484375 451.44140625 613 c 0
 268.634765625 612.227539062 122.16796875 471 85.3759765625 261 c 0
205.072265625 378 m 0
 227.370117188 466.430664062 277.693359375 521.60546875 343.038085938 533 c 0
 483.168945312 557.435546875 544.228515625 395 511.545898438 238 c 0
 484.623046875 108 411.125 34.9599609375 322.758789062 46 c 0
 207.142578125 60.4443359375 168.978808276 234.857581424 205.072265625 378 c 0
EndSplineSet
Fore
SplineSet
53.3291015625 261 m 0
 45.16015625 105.137695312 102.424804688 -25 260.263671875 -28 c 0
 483.075195312 -32.2353515625 571.576171875 147.506835938 588.03125 294 c 0
 615.478515625 538.345703125 469.956054688 613.396484375 376.174804688 613 c 0
 193.462890625 612.227539062 64.3369140625 471 53.3291015625 261 c 0
158.66015625 378 m 0
 170.099609375 466.430664062 213.6484375 521.60546875 277.59375 533 c 0
 414.724609375 557.435546875 495.728515625 395 482.323242188 238 c 0
 471.362304688 108 406.83203125 34.9599609375 317.110351562 46 c 0
 199.720703125 60.4443359375 140.141601562 234.857421875 158.66015625 378 c 0
EndSplineSet
Layer: 2
EndChar

StartChar: b
Encoding: 98 98 9
GlifName: b
Width: 655
VWidth: 79
Flags: HMW
LayerCount: 3
Back
SplineSet
13.9150390625 824 m 1
 149.694335938 827.5390625 299.189453125 877 301.20703125 877 c 1
 291.420898438 838.772460938 271.358398438 770.05859375 252.791992188 682 c 0
 244.004882812 640.325195312 229.783203125 565.240234375 215.033203125 473 c 1
 211.013671875 447.865234375 194.177734375 393.684570312 190.74609375 372 c 1
 184.958984375 335.435546875 190.321289062 305.969726562 187.890625 291 c 0
 172.51171875 196.287109375 172.052734375 124.508789062 175 0 c 1
 130 0 87 -8 42 -13 c 5
 87.3701171875 194.90625 135.001953125 463.171875 161.772460938 699 c 0
 170.034179688 771.778320312 117.560546875 780.124023438 0.158203125 783 c 1
 13.9150390625 824 l 1
592.979492188 363.72265625 m 0
 570.77734375 148.009765625 410.685546875 -45.982421875 45.9013671875 -12.64453125 c 5
 115.508789062 121.239257812 l 1
 115.508789062 121.239257812 177.758789062 56.5625 288 62.93359375 c 0
 409.563476562 69.958984375 469.440429688 215.723632812 480.309570312 328.59765625 c 0
 490.280273438 432.140625 470.29296875 519.069335938 401.604492188 520.655273438 c 0
 301.646484375 522.962890625 198.615234375 346.372070312 179.686523438 242.0859375 c 1
 160.720703125 296.369140625 l 1
 183.586914062 400.780273438 301.953125 604.858398438 444.893554688 609.266601562 c 0
 569.830078125 613.120117188 606.508789062 495.176757812 592.979492188 363.72265625 c 0
EndSplineSet
Fore
SplineSet
37.8291015625 864 m 1
 173.173828125 867.5390625 191.5078125 877 193.525390625 877 c 1
 188.432617188 838.772460938 176.806640625 770.05859375 169.052734375 682 c 0
 165.3828125 640.325195312 160.380859375 565.240234375 156.956054688 473 c 1
 156.022460938 447.865234375 145.838867188 393.684570312 145.0703125 372 c 1
 143.772460938 335.435546875 152.752929688 305.969726562 152.16015625 291 c 0
 148.411132812 196.287109375 156.764648438 124.508789062 175 0 c 1
 130 0 77.982421875 -8 33.5966796875 -13 c 1
 53.4384765625 194.90625 77.9541015625 383.171875 75.7685546875 619 c 0
 74.84765625 718.50390625 50.83203125 815.646484375 37.8291015625 864 c 1
548.3203125 363.72265625 m 0
 552.604492188 148.009765625 416.331054688 -45.982421875 47.4541015625 -12.64453125 c 1
 100.622070312 121.239257812 l 1
 100.622070312 121.239257812 170.813476562 56.5625 280.272460938 62.93359375 c 0
 400.973632812 69.958984375 442.953125 215.723632812 439.962890625 328.59765625 c 0
 437.219726562 432.140625 406.559570312 519.069335938 337.67578125 520.655273438 c 0
 237.434570312 522.962890625 156.0859375 346.372070312 149.961914062 242.0859375 c 1
 124.331054688 296.369140625 l 1
 134.376953125 400.780273438 227.685546875 604.858398438 370.084960938 609.266601562 c 0
 494.548828125 613.120117188 545.708984375 495.176757812 548.3203125 363.72265625 c 0
EndSplineSet
Layer: 2
EndChar

StartChar: t
Encoding: 116 116 11
GlifName: t
Width: 438
VWidth: 79
Flags: HMW
LayerCount: 3
Back
SplineSet
227 573 m 1
 417 573 l 1
 407 516 l 1
 227 516 l 1
 227 573 l 1
85.7568359375 575 m 1
 140.42578125 576.424804688 165.535657167 575.29445088 211.999996788 575.382658046 c 1
 223.957501465 577.978837941 274.342773438 720.655273438 285 763.307617188 c 1
 335.78515625 775.942382812 370.052734375 788 371.048828125 788 c 1
 364.439453125 762.180664062 311.778668278 535.772863241 296.369492497 480.000003754 c 1
 269.677704938 383.390208517 237.739337483 258.680002929 228.114257812 164.201171875 c 0
 225.40625 123.455078125 229.672851562 78.9599609375 264.841796875 78.45703125 c 0
 297.98828125 77.9833984375 335.502929688 103.391601562 357.481445312 140 c 1
 368.60546875 110 l 1
 326.279296875 32.1015625 242.26953125 -23.4658203125 158.841796875 -24.3388671875 c 0
 103.875 -24.9140625 86.12890625 5.5048828125 95.5908203125 58 c 0
 103.711914062 103.056640625 145.094726562 197.333984375 168.915039062 306.138671875 c 0
 175.69921875 342.459960938 189.566669977 433.750302553 193.645507812 459.836914062 c 0
 201.72265625 511.495117188 170.201171875 536.309570312 72 524 c 1
 85.7568359375 575 l 1
EndSplineSet
Fore
SplineSet
156.64453125 573 m 1
 346.64453125 573 l 1
 343.643554688 516 l 1
 163.643554688 516 l 1
 156.64453125 573 l 1
15.1552734375 575 m 1
 69.6494140625 576.424804688 94.8984375 575.294921875 141.3515625 575.3828125 c 1
 152.990234375 577.978515625 185.857421875 720.655273438 191.27734375 763.307617188 c 1
 240.51171875 775.942382812 273.298828125 788 274.294921875 788 c 1
 270.85546875 762.180664062 245.994140625 535.772460938 237.432617188 480 c 1
 222.603515625 383.390625 205.977539062 258.6796875 207.953125 164.201171875 c 0
 210.248046875 123.455078125 219.977539062 78.9599609375 255.208007812 78.45703125 c 0
 288.413085938 77.9833984375 322.807617188 103.391601562 340.291992188 140 c 1
 355.099609375 110 l 1
 322.337890625 32.1015625 245.150390625 -23.4658203125 161.830078125 -24.3388671875 c 0
 106.93359375 -24.9140625 85.453125 5.5048828125 88.4697265625 58 c 0
 91.05859375 103.056640625 120.865234375 197.333984375 131.326171875 306.138671875 c 0
 133.650390625 342.459960938 136.30859375 433.75 137.184570312 459.836914062 c 0
 138.918945312 511.495117188 104.350585938 536.309570312 7.6611328125 524 c 1
 15.1552734375 575 l 1
EndSplineSet
Layer: 2
EndChar

StartChar: p
Encoding: 112 112 12
GlifName: p
Width: 757
VWidth: 79
Flags: HMW
LayerCount: 3
Back
SplineSet
708.16015625 361 m 0
 685.1796875 187.87109375 501.912109375 -40.228515625 168.03515625 -17 c 1
 217.551757812 103 l 1
 217.551757812 103 308.907226562 31.53125 410.8515625 60 c 0
 512.766601562 88.4599609375 573.833984375 215 589.283203125 315 c 0
 605.279296875 418.5390625 572.59375 510.388671875 503.901367188 509 c 0
 388.045898438 506.657226562 283.498046875 246 272.9765625 192 c 1
 250.206054688 241 l 1
 285.25390625 345 377.18359375 610 560.18359375 610 c 0
 685.18359375 610 725.548828125 492 708.16015625 361 c 0
374.9765625 -232 m 1
 239.197265625 -235.5390625 87.7021484375 -285 85.6845703125 -285 c 1
 95.470703125 -246.772460938 115.533203125 -178.05859375 134.099609375 -90 c 0
 149.318359375 -17.8203125 174.838867188 134.573242188 184.000976562 191 c 0
 193.046875 246.711914062 202.120117188 346.4921875 207.469726562 421.00390625 c 0
 210.73046875 466.42578125 200.21875 510.806640625 170.891601562 511.938476562 c 0
 142.259765625 513.04296875 109.415039062 492.203125 63.251953125 424 c 1
 50.1279296875 451 l 1
 59.771484375 474.104492188 153.263671875 621.147460938 255.891601562 615.55859375 c 0
 315.478515625 612.313476562 330.708007812 576.297851562 328.573242188 531 c 0
 326.200195312 480.640625 292.873046875 380.903320312 280.552734375 322 c 0
 270.203125 284.94921875 290.629882812 290.3515625 285.240234375 262 c 0
 275.43359375 210.412109375 234.922851562 -30.171875 233.119140625 -93 c 0
 231.017578125 -166.215820312 271.331054688 -188.124023438 388.733398438 -191 c 1
 374.9765625 -232 l 1
EndSplineSet
Fore
SplineSet
663.834960938 361 m 0
 662.112304688 187.87109375 506.8515625 -40.228515625 170.122070312 -17 c 1
 204.905273438 103 l 1
 204.905273438 103 305.036132812 31.53125 403.484375 60 c 0
 501.905273438 88.4599609375 547.435546875 215 550.606445312 315 c 0
 553.889648438 418.5390625 509.92578125 510.388671875 441.404296875 509 c 0
 325.8359375 506.657226562 253.29296875 246 249.40234375 192 c 1
 220.615234375 241 l 1
 242.893554688 345 302.28515625 610 485.28515625 610 c 0
 610.28515625 610 665.138671875 492 663.834960938 361 c 0
403.462890625 -232 m 1
 268.118164062 -235.5390625 122.6953125 -285 120.677734375 -285 c 1
 125.770507812 -246.772460938 137.396484375 -178.05859375 145.150390625 -90 c 0
 151.506835938 -17.8203125 158.315429688 134.573242188 160.548828125 191 c 0
 162.754882812 246.711914062 159.576171875 346.4921875 155.77734375 421.00390625 c 0
 153.4609375 466.42578125 137.5 510.806640625 108.033203125 511.938476562 c 0
 79.265625 513.04296875 48.98046875 492.203125 11.19140625 424 c 1
 -5.248046875 451 l 1
 1.55859375 474.104492188 76.99609375 621.147460938 180.310546875 615.55859375 c 0
 240.295898438 612.313476562 259.947265625 576.297851562 263.375 531 c 0
 267.184570312 480.640625 246.103515625 380.903320312 241.015625 322 c 0
 235.215820312 284.94921875 254.979492188 290.3515625 253.0703125 262 c 0
 249.598632812 210.412109375 238.627929688 -30.171875 244.538085938 -93 c 0
 251.426757812 -166.215820312 294.4296875 -188.124023438 412.185546875 -191 c 1
 403.462890625 -232 l 1
EndSplineSet
Layer: 2
EndChar

StartChar: v
Encoding: 118 118 13
GlifName: v
Width: 645
VWidth: 79
Flags: HMW
LayerCount: 3
Back
SplineSet
107 499 m 1049
2.0908203125 563 m 1,0,1
 85.208984375 568 135.561523438 585 229.090820312 616 c 1,2,-1
 232.540039062 558.078125 253 421 271.736328125 297 c 0,7,8
 282.897460938 223.1328125 309.653320312 104.299804688 333 51 c 0,0,0
 340.41796875 34.0654296875 304.166992188 78 304.166992188 78 c 1,9,10
 390.180664062 182.400390625 486.438476562 325.5625 513 472 c 1,0,0
 519.022460938 525.15625 493.990234375 545.329101562 416 544 c 5,0,0
 420.090820312 576 l 1,14,15
 453.391601562 599.602539062 521.739242166 616.423176913 551 615.763671875 c 4,0,0
 616.03515625 614.297851562 625.58918818 582.975551531 624.090820312 556 c 1,16,-1
 603.760742188 377.129882812 484.543945312 203.794921875 319.294921875 -4 c 1,21,22
 289.765625 -7 238.178710938 -12 202.415039062 -22 c 1,23,24
 209.172851562 184.998046875 173.05078125 418.817382812 107 499 c 1,0,0
 78.052734375 530.000976562 39.546875 523.006835938 -4.1357421875 520 c 1,27,-1
 2.0908203125 563 l 1,0,1
EndSplineSet
Fore
SplineSet
45.73046875 499 m 1049
-67.037109375 563 m 1,0,1
 15.4677734375 568 63.732421875 585 153.455078125 616 c 1,2,-1
 164.016601562 558.078125 201.307617188 421 235.26953125 297 c 0,7,8
 255.5 223.1328125 296.846679688 104.299804688 326.73828125 51 c 0,0,0
 336.235351562 34.0654296875 294.58984375 78 294.58984375 78 c 1,9,10
 367.78515625 182.400390625 446.46484375 325.5625 455.045898438 472 c 1,0,0
 454.541015625 525.15625 427.032226562 545.329101562 349.205078125 544 c 5,0,0
 349.3671875 576 l 1,14,15
 379.76953125 599.602539062 446.051757812 616.422851562 475.393554688 615.763671875 c 4,0,0
 540.608398438 614.297851562 554.008789062 582.975585938 555.822265625 556 c 1,16,-1
 557.455078125 377.129882812 459.521484375 203.794921875 319.786132812 -4 c 1,21,22
 290.625 -7 239.65234375 -12 205.116210938 -22 c 1,23,24
 186.458007812 184.998046875 121.626953125 418.817382812 45.73046875 499 c 1,0,0
 12.9765625 530.000976562 -24.669921875 523.006835938 -67.9833984375 520 c 1,27,-1
 -67.037109375 563 l 1,0,1
EndSplineSet
Layer: 2
EndChar

StartChar: m
Encoding: 109 109 14
GlifName: m
Width: 1023
VWidth: 79
Flags: HMW
LayerCount: 3
Back
SplineSet
55.9150390625 565 m 1
 191.694335938 568.5390625 330.189453125 608 332.20703125 608 c 1
 319.129467973 556.914743063 275.197265625 451.3828125 239.98828125 318 c 1
 238.1875 308.47265625 246.482231126 298.802317088 244.890625 289 c 0
 229.51171875 194.287109375 217.052734375 122.508789062 210 -2 c 1
 165 -2 113 -4 78 -9 c 1
 108.390625 85 146.206054688 196.224609375 163.651367188 288 c 0
 197.953125 468.452148438 205.73046875 522.993164062 52.158203125 524 c 1
 55.9150390625 565 l 1
535.89453125 208 m 1
 606.884765625 446 775.022460938 613.430664062 901.75390625 611 c 0
 961.416015625 609.85546875 988.984375 586.135742188 988.182617188 523 c 0
 987.053710938 434.248046875 945.237304688 327.91015625 924.919921875 220 c 0
 918.478515625 185.7890625 890.375 79.2353515625 944.841796875 78.45703125 c 0
 977.98828125 77.9833984375 1015.50292969 103.391601562 1037.48144531 140 c 1
 1048.60546875 110 l 1
 1006.27929688 32.1015625 932.26953125 -23.4658203125 848.841796875 -24.3388671875 c 0
 793.875 -24.9140625 776.12890625 5.5048828125 785.590820312 58 c 0
 796.595703125 119.057617188 863.682617188 270.501953125 870.370117188 426 c 0
 872.705078125 480.287109375 861.827148438 512.572265625 818.841796875 512.791992188 c 0
 713.405273438 513.331054688 577.696289062 291.228515625 562.370117188 184 c 9
 535.89453125 208 l 1
199.89453125 198 m 1
 260.884765625 446 436.026367188 613.615234375 562.75390625 611 c 0
 686.190934646 608.453121115 624.576171875 458.70703125 601.875 366 c 4
 599.666015625 356.977539062 607.635848739 348.269221405 605.919921875 340 c 0
 598.846679688 305.9140625 561.375 142.235351562 565.841796875 1.45703125 c 1
 521.240919781 1.92577876916 478.732040671 -1.17827816303 436.841796875 -5.3388671875 c 1
 469.219726562 99.6181640625 515.434570312 238.224609375 524.370117188 426 c 0
 526.953125 480.276367188 512.827148438 512.572265625 469.841796875 512.791992188 c 0
 364.405273438 513.331054688 241.696289062 281.228515625 226.370117188 174 c 9
 199.89453125 198 l 1
EndSplineSet
Fore
SplineSet
102.858398438 595 m 5
 236.975585938 608.5390625 254.30859375 618 256.326171875 618 c 5
 249.521484375 566.915039062 219.774414062 451.3828125 200.942382812 318 c 5
 200.311523438 308.47265625 209.793945312 298.802734375 209.40625 289 c 4
 205.65625 194.287109375 202.010742188 122.508789062 210.245117188 -2 c 5
 165.245117188 -2 113.491210938 -4 79.10546875 -9 c 5
 97.9541015625 85 122.33984375 196.182617188 128.2890625 288 c 4
 141.118164062 485.9765625 121.96484375 535.442382812 102.858398438 595 c 5
507.513671875 208 m 1
 549.28125 446 706.861328125 613.430664062 833.890625 611 c 0
 893.693359375 609.85546875 924.173828125 586.135742188 931.124023438 523 c 0
 940.892578125 434.248046875 906.578125 337.784179688 898.837890625 230 c 0
 893.5078125 155.7890625 910.259765625 59.2353515625 950.961914062 8.45703125 c 0
 777.760742188 -14.3388671875 l 17
 766.483398438 42.3212890625 834.540039062 309.19921875 825.221679688 426 c 0
 820.891601562 480.287109375 806.049804688 512.572265625 763.037109375 512.791992188 c 0
 657.534179688 513.331054688 539.095703125 291.228515625 536.935546875 184 c 9
 507.513671875 208 l 1
175.583007812 198 m 1
 206.123046875 446 360.68359375 613.615234375 487.732421875 611 c 0
 611.482421875 608.453125 568.25390625 458.70703125 556.935546875 366 c 0
 555.834960938 356.977539062 564.874023438 348.26953125 564.172851562 340 c 0
 561.28515625 305.9140625 543.911132812 142.235351562 565.663085938 1.45703125 c 1
 521.004882812 1.92578125 478.876953125 -1.1787109375 437.497070312 -5.3388671875 c 1
 456.98828125 99.6181640625 486.184570312 238.224609375 472.063476562 426 c 0
 467.982421875 480.276367188 449.891601562 512.572265625 406.87890625 512.791992188 c 0
 301.375976562 513.331054688 207.166015625 281.228515625 205.005859375 174 c 9
 175.583007812 198 l 1
EndSplineSet
Layer: 2
EndChar

StartChar: g
Encoding: 103 103 15
GlifName: g
Width: 769
VWidth: 153
Flags: HMW
LayerCount: 3
Back
SplineSet
6.8583984375 -172 m 0
 -3.875 -69.7373046875 100.748046875 57 238.044921875 92 c 1
 311.30859375 86 l 17
 195.041015625 53.3046875 102.5 -34.0126953125 107 -116.26953125 c 0
 110.810546875 -185.916992188 214.868164062 -229.297851562 346.034179688 -207 c 4
 426.21484375 -193.370117188 484.48828125 -138 493.329101562 -66 c 0
 511.624023438 83 264.799804688 110 48.431640625 57 c 5
 42.5185546875 74 44.2197265625 86 45.0439453125 109 c 5
 79.341796875 144 150.112304688 201 211.901367188 240 c 1
 260.181640625 226 l 1
 226.357421875 203 156.53515625 133 167.39453125 130 c 1
 426.850585938 180 643.754872393 112.178725652 611.766601562 -48 c 4
 583.208984375 -191 397.790039062 -286.225585938 205.333984375 -284 c 0
 75.451171875 -282.498046875 12.9365234375 -229.912109375 6.8583984375 -172 c 0
121.86328125 370 m 0
 141.3515625 510.596679688 296.454101562 611 438.454101562 611 c 0
 553.454101562 611 630.54296875 571 616.053710938 453 c 0
 597.390625 301 443.077148438 207 307.077148438 207 c 0
 162.077148438 207 109.111328125 278 121.86328125 370 c 0
227.037109375 434 m 0
 212.603955607 342.439794061 282.953125 263 378.075195312 264 c 0
 462.235351562 264.884765625 518.474198969 347.60073227 504.739257812 426 c 0
 493.702148438 489 451.946289062 548 363.946289062 548 c 0
 295.946289062 548 238.702148438 508 227.037109375 434 c 0
570.280273438 520 m 17
 600.526367188 522 684.086914062 551 793.454101562 611 c 1
 794.911132812 574 787.561523438 506 779.877929688 476 c 1
 724.124023438 488 628.124023438 498 577.124023438 498 c 9
 570.280273438 520 l 17
EndSplineSet
Fore
SplineSet
27.9775390625 -172 m 0
 4.6875 -69.7373046875 93.7490234375 57 226.749023438 92 c 1
 300.749023438 86 l 17
 188.49609375 53.3046875 106.67578125 -34.0126953125 121.276367188 -116.26953125 c 0
 133.638671875 -185.916992188 243.022460938 -229.297851562 371.450195312 -207 c 4
 449.958007812 -193.370117188 501.432617188 -138 501.432617188 -66 c 0
 501.432617188 83 251.293945312 110 41.4326171875 57 c 5
 33.4326171875 74 33.66015625 86 31.66015625 109 c 5
 61.6611328125 144 125.432617188 201 182.432617188 240 c 1
 232.432617188 226 l 1
 201.432617188 203 140.205078125 133 151.432617188 130 c 1
 404.749023438 180 629.981445312 112.178710938 617.66015625 -48 c 4
 606.661132812 -191 432.934570312 -286.225585938 240.205078125 -284 c 0
 110.137695312 -282.498046875 41.166015625 -229.912109375 27.9775390625 -172 c 0
76.4326171875 370 m 0
 78.658203125 510.596679688 221.432617188 611 363.432617188 611 c 0
 478.432617188 611 560.432617188 571 560.432617188 453 c 0
 560.432617188 301 417.661132812 207 281.661132812 207 c 0
 136.661132812 207 74.9775390625 278 76.4326171875 370 c 0
173.749023438 434 m 0
 170.557617188 342.439453125 250.661132812 263 345.66015625 264 c 0
 429.711914062 264.884765625 475.793945312 347.600585938 452.432617188 426 c 0
 433.66015625 489 384.66015625 548 296.66015625 548 c 0
 228.66015625 548 176.327148438 508 173.749023438 434 c 0
506.432617188 520 m 17
 536.432617188 522 616.432617188 551 718.432617188 611 c 1
 724.432617188 574 725.432617188 506 721.432617188 476 c 1
 664.205078125 488 566.977539062 498 515.977539062 498 c 9
 506.432617188 520 l 17
EndSplineSet
Layer: 2
EndChar

StartChar: H
Encoding: 72 72 16
GlifName: H_
Width: 902
VWidth: 79
Flags: HMW
LayerCount: 3
Back
SplineSet
52.755859375 61 m 1
 128.05078125 57 163.693359375 89 179.157226562 137 c 1
 299.744140625 146 l 1
 280.993164062 51 356.81640625 50 374.993164062 51 c 1
 376 0 l 1
 52 0 l 1
 52.755859375 61 l 1
202.061523438 800 m 1
 313.651367188 792 393.1796875 795 502.061523438 800 c 1
 503.069335938 749 l 1
 485.245117188 750 416.069335938 749 401.317382812 654 c 1
 276.905273438 663 l 1
 278.368164062 711 274.010742188 743 197.305664062 739 c 1
 202.061523438 800 l 1
127 0 m 1
 127 0 158.6953125 72 177.98046875 136 c 1
 218.545898438 298 268.798828125 583 291.418945312 768 c 1
 438.827148438 793 l 1
 378.561523438 593 306.67578125 208 299.567382812 145 c 0
 294.80859375 101 264.639648438 49 346.639648438 49 c 1
 322.176757812 1 l 1
 127 0 l 1
258.711914062 367 m 1
 270.349609375 433 l 1
 679.526367188 434 l 5
 824.759765625 441 l 5
 812.241210938 370 l 5
 258.711914062 367 l 1
547.2265625 58 m 5
 622.521484375 54 664.221679688 92 676.685546875 140 c 5
 794.509765625 139 l 5
 775.639648438 49 841.639648438 49 860.81640625 50 c 5
 862 0 l 5
 547 0 l 5
 547.2265625 58 l 5
693.061523438 800 m 5
 807.297851562 790 890.00390625 794 997.061523438 800 c 5
 993.069335938 749 l 5
 975.245117188 750 915.069335938 749 894.317382812 654 c 5
 771.905273438 663 l 5
 773.368164062 711 767.010742188 743 690.305664062 739 c 5
 693.061523438 800 l 5
624 0 m 5
 624 0 655.6953125 72 674.98046875 136 c 5
 715.545898438 298 762.798828125 583 785.418945312 768 c 5
 931.827148438 793 l 5
 871.561523438 593 803.67578125 208 795.567382812 145 c 4
 789.80859375 101 760.639648438 49 842.639648438 49 c 5
 818.176757812 1 l 5
 624 0 l 5
EndSplineSet
Fore
SplineSet
52.755859375 61 m 1
 128.05078125 57 163.693359375 89 179.157226562 137 c 1
 299.744140625 146 l 1
 280.993164062 51 356.81640625 50 374.993164062 51 c 1
 376 0 l 1
 52 0 l 1
 52.755859375 61 l 1
202.061523438 800 m 1
 313.651367188 792 393.1796875 795 502.061523438 800 c 1
 503.069335938 749 l 1
 485.245117188 750 416.069335938 749 401.317382812 654 c 1
 276.905273438 663 l 1
 278.368164062 711 274.010742188 743 197.305664062 739 c 1
 202.061523438 800 l 1
127 0 m 1
 127 0 158.6953125 72 177.98046875 136 c 1
 218.545898438 298 268.798828125 583 291.418945312 768 c 1
 438.827148438 793 l 1
 378.561523438 593 306.67578125 208 299.567382812 145 c 0
 294.80859375 101 264.639648438 49 346.639648438 49 c 1
 322.176757812 1 l 1
 127 0 l 1
258.711914062 367 m 1
 270.349609375 433 l 1
 679.526367188 434 l 5
 824.759765625 441 l 5
 812.241210938 370 l 5
 258.711914062 367 l 1
547.2265625 58 m 5
 622.521484375 54 664.221679688 92 676.685546875 140 c 5
 794.509765625 139 l 5
 775.639648438 49 841.639648438 49 860.81640625 50 c 5
 862 0 l 5
 547 0 l 5
 547.2265625 58 l 5
693.061523438 800 m 5
 807.297851562 790 890.00390625 794 997.061523438 800 c 5
 993.069335938 749 l 5
 975.245117188 750 915.069335938 749 894.317382812 654 c 5
 771.905273438 663 l 5
 773.368164062 711 767.010742188 743 690.305664062 739 c 5
 693.061523438 800 l 5
624 0 m 5
 624 0 655.6953125 72 674.98046875 136 c 5
 715.545898438 298 762.798828125 583 785.418945312 768 c 5
 931.827148438 793 l 5
 871.561523438 593 803.67578125 208 795.567382812 145 c 4
 789.80859375 101 760.639648438 49 842.639648438 49 c 5
 818.176757812 1 l 5
 624 0 l 5
EndSplineSet
Layer: 2
EndChar

StartChar: A
Encoding: 65 65 17
GlifName: A_
Width: 863
VWidth: 79
Flags: HMW
LayerCount: 3
Back
SplineSet
52.755859375 61 m 1
 132.168945312 52 160.1640625 86 187.98046875 136 c 0
 323.475585938 377 428.798828125 583 516.418945312 768 c 5
 556.477539062 774 606.592773438 786 647.885742188 799 c 5
 671.856445312 589 710.705078125 418 763.44921875 150 c 0
 772.337890625 104 782.58203125 43 852.698242188 55 c 1
 853 0 l 1
 741 0 629 0 517 0 c 1
 518.28515625 64 l 1
 587.345703125 53 640.4609375 65 634.864257812 124 c 0
 622.905273438 249 574.825195312 396 557.392578125 541 c 4
 556.26953125 580 550.967773438 635 550.197265625 676 c 5
 453.521484375 468 316.028320312 210 289.567382812 145 c 0
 251.639648438 49 326.81640625 50 374.993164062 51 c 1
 376 0 l 1
 268 0 160 0 52 0 c 1
 52.755859375 61 l 1
339.30859375 308 m 1
 349.536132812 366 l 1
 673.946289062 374 l 1
 662.837890625 311 l 1
 339.30859375 308 l 1
EndSplineSet
Fore
SplineSet
52.755859375 61 m 1
 132.168945312 52 160.1640625 86 187.98046875 136 c 0
 323.475585938 377 428.798828125 583 516.418945312 768 c 5
 556.477539062 774 606.592773438 786 647.885742188 799 c 5
 671.856445312 589 710.705078125 418 763.44921875 150 c 0
 772.337890625 104 782.58203125 43 852.698242188 55 c 1
 853 0 l 1
 741 0 629 0 517 0 c 1
 518.28515625 64 l 1
 587.345703125 53 640.4609375 65 634.864257812 124 c 0
 622.905273438 249 574.825195312 396 557.392578125 541 c 4
 556.26953125 580 550.967773438 635 550.197265625 676 c 5
 453.521484375 468 316.028320312 210 289.567382812 145 c 0
 251.639648438 49 326.81640625 50 374.993164062 51 c 1
 376 0 l 1
 268 0 160 0 52 0 c 1
 52.755859375 61 l 1
339.30859375 308 m 1
 349.536132812 366 l 1
 673.946289062 374 l 1
 662.837890625 311 l 1
 339.30859375 308 l 1
EndSplineSet
Layer: 2
EndChar

StartChar: B
Encoding: 66 66 18
GlifName: B_
Width: 719
VWidth: 79
Flags: HMW
LayerCount: 3
Back
SplineSet
157.708984375 798 m 1
 343.592773438 786 387.590820312 803 537.590820312 803 c 4
 672.590820312 803 742.12890625 738 721.969726562 618 c 0
 706.395507812 524 621.528320312 417 513.646484375 412 c 1
 550.0546875 437 l 1
 683.70703125 401 724.190429688 313 705.028320312 210 c 0
 669.173828125 18 521 0 320 0 c 1
 251.823242188 -1 107 0 33 0 c 1
 33.755859375 61 l 1
 110.993164062 51 146.577148438 77 157.393554688 127 c 0
 204.303710938 342 229.521484375 468 249.733398438 628 c 0
 256.959960938 686 249.834960938 742 156.600585938 735 c 1
 157.708984375 798 l 1
310.123046875 375 m 1
 291.490234375 275 277.736328125 197 274.688476562 123 c 0
 271.4609375 65 315.755859375 61 368.755859375 61 c 0
 481.932617188 62 566.983398438 119 584.615234375 219 c 0
 599.956054688 306 542.533203125 383 438.0625 386 c 0
 395.23828125 387 346.356445312 382 310.123046875 375 c 1
325.346679688 450 m 1
 517.115234375 426 581.453125 530 593.50390625 587 c 0
 612.373046875 677 564.36328125 745 486.715820312 747 c 0
 440.892578125 748 405.305664062 739 380.71875 730 c 1
 359.141601562 653 343.626953125 548 325.346679688 450 c 1
EndSplineSet
Fore
SplineSet
157.708984375 798 m 1
 343.592773438 786 387.590820312 803 537.590820312 803 c 4
 672.590820312 803 742.12890625 738 721.969726562 618 c 0
 706.395507812 524 621.528320312 417 513.646484375 412 c 1
 550.0546875 437 l 1
 683.70703125 401 724.190429688 313 705.028320312 210 c 0
 669.173828125 18 521 0 320 0 c 1
 251.823242188 -1 107 0 33 0 c 1
 33.755859375 61 l 1
 110.993164062 51 146.577148438 77 157.393554688 127 c 0
 204.303710938 342 229.521484375 468 249.733398438 628 c 0
 256.959960938 686 249.834960938 742 156.600585938 735 c 1
 157.708984375 798 l 1
310.123046875 375 m 1
 291.490234375 275 277.736328125 197 274.688476562 123 c 0
 271.4609375 65 315.755859375 61 368.755859375 61 c 0
 481.932617188 62 566.983398438 119 584.615234375 219 c 0
 599.956054688 306 542.533203125 383 438.0625 386 c 0
 395.23828125 387 346.356445312 382 310.123046875 375 c 1
325.346679688 450 m 1
 517.115234375 426 581.453125 530 593.50390625 587 c 0
 612.373046875 677 564.36328125 745 486.715820312 747 c 0
 440.892578125 748 405.305664062 739 380.71875 730 c 1
 359.141601562 653 343.626953125 548 325.346679688 450 c 1
EndSplineSet
Layer: 2
EndChar

StartChar: W
Encoding: 87 87 19
GlifName: W_
Width: 1231
VWidth: 79
Flags: HMW
LayerCount: 3
Back
SplineSet
126.061523438 800 m 1
 241.356445312 796 372.827148438 793 462.061523438 800 c 1
 460.776367188 736 l 1
 391.715820312 747 338.600585938 735 344.197265625 676 c 0
 356.15625 551 398.241210938 370 415.673828125 225 c 0
 417.854492188 192 422.803710938 135 424.6328125 100 c 1
 520.07421875 301 663.385742188 592 689.494140625 655 c 1
 791.081054688 664 l 1
 656.8203125 430 545.149414062 188 458.41015625 8 c 1
 418.352539062 2 368.236328125 -10 326.944335938 -23 c 1
 301.915039062 181 269.767578125 390 215.612304688 650 c 0
 206.723632812 696 194.892578125 748 124.776367188 736 c 1
 126.061523438 800 l 1
600.061523438 800 m 1
 712.061523438 800 824.061523438 800 936.061523438 800 c 1
 934.776367188 736 l 1
 865.715820312 747 812.600585938 735 818.197265625 676 c 0
 830.15625 551 864.241210938 370 881.673828125 225 c 0
 883.854492188 192 888.803710938 135 890.6328125 100 c 1
 986.07421875 301 1128.38574219 592 1154.49414062 655 c 0
 1192.421875 751 1117.24511719 750 1069.06933594 749 c 1
 1068.06152344 800 l 1
 1176.06152344 800 1284.06152344 800 1392.06152344 800 c 1
 1391.30566406 739 l 1
 1311.89257812 748 1283.89746094 714 1256.08105469 664 c 0
 1121.8203125 430 1011.14941406 188 924.41015625 8 c 1
 884.352539062 2 834.236328125 -10 792.944335938 -23 c 1
 767.915039062 181 743.767578125 390 689.612304688 650 c 0
 680.723632812 696 670.479492188 757 600.36328125 745 c 1
 600.061523438 800 l 1
EndSplineSet
Fore
SplineSet
126.061523438 800 m 1
 241.356445312 796 372.827148438 793 462.061523438 800 c 1
 460.776367188 736 l 1
 391.715820312 747 338.600585938 735 344.197265625 676 c 0
 356.15625 551 398.241210938 370 415.673828125 225 c 0
 417.854492188 192 422.803710938 135 424.6328125 100 c 1
 520.07421875 301 663.385742188 592 689.494140625 655 c 1
 791.081054688 664 l 1
 656.8203125 430 545.149414062 188 458.41015625 8 c 1
 418.352539062 2 368.236328125 -10 326.944335938 -23 c 1
 301.915039062 181 269.767578125 390 215.612304688 650 c 0
 206.723632812 696 194.892578125 748 124.776367188 736 c 1
 126.061523438 800 l 1
600.061523438 800 m 1
 712.061523438 800 824.061523438 800 936.061523438 800 c 1
 934.776367188 736 l 1
 865.715820312 747 812.600585938 735 818.197265625 676 c 0
 830.15625 551 864.241210938 370 881.673828125 225 c 0
 883.854492188 192 888.803710938 135 890.6328125 100 c 1
 986.07421875 301 1128.38574219 592 1154.49414062 655 c 0
 1192.421875 751 1117.24511719 750 1069.06933594 749 c 1
 1068.06152344 800 l 1
 1176.06152344 800 1284.06152344 800 1392.06152344 800 c 1
 1391.30566406 739 l 1
 1311.89257812 748 1283.89746094 714 1256.08105469 664 c 0
 1121.8203125 430 1011.14941406 188 924.41015625 8 c 1
 884.352539062 2 834.236328125 -10 792.944335938 -23 c 1
 767.915039062 181 743.767578125 390 689.612304688 650 c 0
 680.723632812 696 670.479492188 757 600.36328125 745 c 1
 600.061523438 800 l 1
EndSplineSet
Layer: 2
EndChar

StartChar: c
Encoding: 99 99 20
GlifName: c
Width: 595
VWidth: 153
Flags: HMW
LayerCount: 3
Back
SplineSet
92.318359375 230 m 0
 121.4609375 469 298.468290895 593.175519229 426.3828125 611 c 0
 526.8515625 625 580.58203125 610.364257812 616.545898438 598 c 0
 574 441 l 0
 535 513 462.51171875 558.233398438 392.56640625 551 c 0
 317.8671875 543.275390625 252.462890625 462 228.01171875 349 c 0
 206.391601562 249.08203125 199.75390625 83 333.345703125 58 c 0
 432.995117188 39 534.985351562 117 536.985351562 117 c 1
 554.990234375 83 l 1
 532.993164062 56 435.642578125 -23.6279296875 308.296875 -26 c 0
 200.944335938 -28 67.34765625 26 92.318359375 230 c 0
EndSplineSet
Fore
SplineSet
64.078125 230 m 0
 63.875 469 225.635742188 593.17578125 351.361328125 611 c 0
 450.111328125 625 505.638671875 610.364257812 543.12109375 598 c 0
 519.8515625 441 l 0
 472.01171875 513 393.969726562 558.233398438 324.912109375 551 c 0
 251.161132812 543.275390625 195.736328125 462 185.16015625 349 c 0
 175.80859375 249.08203125 189.5625 83 326.224609375 58 c 0
 428.206054688 39 520.619140625 117 522.619140625 117 c 1
 544.798828125 83 l 1
 526.1171875 56 438.543945312 -23.6279296875 311.489257812 -26 c 0
 204.381835938 -28 64.1552734375 26 64.078125 230 c 0
EndSplineSet
Layer: 2
EndChar

StartChar: w
Encoding: 119 119 21
GlifName: w
Width: 1025
VWidth: 79
Flags: HMW
LayerCount: 3
Back
SplineSet
622.901367188 521 m 0
 631.336914062 453.4921875 658.938874081 381.695586607 671.736328125 297 c 0
 682.897460938 223.1328125 709.653320312 104.299804688 733 51 c 0
 740.41796875 34.0654296875 704.166992188 78 704.166992188 78 c 1
 790.180664062 182.400390625 866.438476562 325.5625 893 472 c 1
 899.022460938 525.15625 873.990234375 545.329101562 796 544 c 1
 800.090820312 576 l 1
 833.391601562 599.602539062 901.739257812 616.422851562 931 615.763671875 c 0
 996.03515625 614.297851562 1005.58886719 582.975585938 1004.09082031 556 c 1
 983.760742188 377.129882812 884.543945312 203.794921875 719.294921875 -4 c 1
 689.765625 -7 638.178710938 -12 602.415039062 -22 c 1
 608.326524921 159.074279107 581.42578125 320.672851562 530.381835938 422 c 1
 523.07421875 436.506835938 535.272460938 438.958007812 527 449 c 0
 622.901367188 521 l 0
524 449 m 1049
137 499 m 1049
32.0908203125 563 m 1
 115.208984375 568 165.561523438 585 259.090820312 616 c 1
 262.540039062 558.078125 283 421 301.736328125 297 c 0
 312.897460938 223.1328125 339.653320312 104.299804688 363 51 c 0
 370.41796875 34.0654296875 334.166992188 78 334.166992188 78 c 1
 420.180664062 182.400390625 496.438476562 285.5625 523 432 c 1
 529.022460938 485.15625 513.990234375 495.329101562 436 494 c 1
 440.090820312 526 l 1
 473.391601562 549.602539062 521.739257812 566.422851562 551 565.763671875 c 0
 616.03515625 564.297851562 625.588867188 532.975585938 624.090820312 506 c 1
 603.760742188 327.129882812 514.543945312 203.794921875 349.294921875 -4 c 1
 319.765625 -7 268.178710938 -12 232.415039062 -22 c 1
 239.172851562 184.998046875 203.05078125 418.817382812 137 499 c 1
 108.052734375 530.000976562 69.546875 523.006835938 25.8642578125 520 c 1
 32.0908203125 563 l 1
134 499 m 1049
EndSplineSet
Fore
SplineSet
558.930664062 521 m 0
 575.655273438 453.4921875 612.072265625 381.6953125 635.26953125 297 c 0
 655.5 223.1328125 696.846679688 104.299804688 726.73828125 51 c 0
 736.235351562 34.0654296875 694.58984375 78 694.58984375 78 c 1
 767.78515625 182.400390625 826.46484375 325.5625 835.045898438 472 c 1
 834.541015625 525.15625 807.032226562 545.329101562 729.205078125 544 c 1
 729.3671875 576 l 1
 759.76953125 599.602539062 826.051757812 616.422851562 855.393554688 615.763671875 c 0
 920.608398438 614.297851562 934.008789062 582.975585938 935.822265625 556 c 1
 937.455078125 377.129882812 859.521484375 203.794921875 719.786132812 -4 c 1
 690.625 -7 639.65234375 -12 605.116210938 -22 c 1
 588.794921875 159.07421875 542.051757812 320.672851562 478.56640625 422 c 1
 469.477539062 436.506835938 481.375 438.958007812 471.870117188 449 c 0
 558.930664062 521 l 0
468.870117188 449 m 1049
75.73046875 499 m 1049
-37.037109375 563 m 1
 45.4677734375 568 93.732421875 585 183.455078125 616 c 1
 194.016601562 558.078125 231.307617188 421 265.26953125 297 c 0
 285.5 223.1328125 326.846679688 104.299804688 356.73828125 51 c 0
 366.235351562 34.0654296875 324.58984375 78 324.58984375 78 c 1
 397.78515625 182.400390625 461.375976562 285.5625 469.95703125 432 c 1
 469.453125 485.15625 453.171875 495.329101562 375.344726562 494 c 1
 375.505859375 526 l 1
 405.909179688 549.602539062 452.19140625 566.422851562 481.533203125 565.763671875 c 0
 546.748046875 564.297851562 560.147460938 532.975585938 561.961914062 506 c 1
 563.594726562 327.129882812 489.521484375 203.794921875 349.786132812 -4 c 1
 320.625 -7 269.65234375 -12 235.116210938 -22 c 1
 216.458007812 184.998046875 151.626953125 418.817382812 75.73046875 499 c 1
 42.9765625 530.000976562 5.330078125 523.006835938 -37.9833984375 520 c 1
 -37.037109375 563 l 1
72.73046875 499 m 1049
EndSplineSet
Layer: 2
EndChar

StartChar: V
Encoding: 86 86 22
GlifName: V_
Width: 779
VWidth: 79
Flags: HMW
LayerCount: 3
Back
SplineSet
118.885742188 799 m 5
 230.00390625 794 371.827148438 793 454.885742188 799 c 5
 453.600585938 735 l 5
 384.540039062 746 331.423828125 734 337.020507812 675 c 4
 350.038085938 556 393.709960938 384 412.200195312 245 c 0
 413.323242188 206 416.862304688 141 417.6328125 100 c 1
 513.07421875 301 656.208984375 591 682.317382812 654 c 4
 720.245117188 750 645.069335938 749 596.892578125 748 c 5
 595.885742188 799 l 5
 706.1796875 795 815.297851562 790 919.885742188 799 c 5
 919.12890625 738 l 5
 839.715820312 747 811.720703125 713 783.905273438 663 c 4
 649.64453125 429 538.149414062 188 451.41015625 8 c 1
 411.352539062 2 361.236328125 -10 319.944335938 -23 c 1
 295.973632812 187 264.70703125 401 211.962890625 669 c 0
 201.310546875 705 188.950195312 754 119.1875 744 c 5
 118.885742188 799 l 5
EndSplineSet
Fore
SplineSet
118.885742188 799 m 5
 230.00390625 794 371.827148438 793 454.885742188 799 c 5
 453.600585938 735 l 5
 384.540039062 746 331.423828125 734 337.020507812 675 c 4
 350.038085938 556 393.709960938 384 412.200195312 245 c 0
 413.323242188 206 416.862304688 141 417.6328125 100 c 1
 513.07421875 301 656.208984375 591 682.317382812 654 c 4
 720.245117188 750 645.069335938 749 596.892578125 748 c 5
 595.885742188 799 l 5
 706.1796875 795 815.297851562 790 919.885742188 799 c 5
 919.12890625 738 l 5
 839.715820312 747 811.720703125 713 783.905273438 663 c 4
 649.64453125 429 538.149414062 188 451.41015625 8 c 1
 411.352539062 2 361.236328125 -10 319.944335938 -23 c 1
 295.973632812 187 264.70703125 401 211.962890625 669 c 0
 201.310546875 705 188.950195312 754 119.1875 744 c 5
 118.885742188 799 l 5
EndSplineSet
Layer: 2
EndChar

StartChar: C
Encoding: 67 67 23
GlifName: C_
Width: 748
VWidth: 79
Flags: HMW
LayerCount: 3
Back
SplineSet
109.721679688 299 m 4
 149.6875 537 332.4140625 802 664.4140625 802 c 0
 825.4140625 802 888.06640625 766 888.06640625 766 c 1
 882.07421875 715 855.151367188 585 837.745117188 543 c 1
 779.274414062 546 l 1
 762.791015625 634 699.892578125 748 655.126953125 755 c 1
 672.830078125 776 847.071289062 732 777.3203125 637 c 1
 761.025390625 641 709.71875 730 586.71875 730 c 0
 428.71875 730 296.856445312 589 259.296875 393 c 4
 226.849609375 226 261.811523438 84 475.282226562 81 c 0
 564.106445312 80 652.806640625 118 712.270507812 166 c 1
 744.688476562 123 l 1
 658.171875 35 548.001953125 -17 406.001953125 -17 c 0
 202.001953125 -17 74.2216796875 92 109.721679688 299 c 4
EndSplineSet
Fore
SplineSet
109.721679688 299 m 4
 149.6875 537 332.4140625 802 664.4140625 802 c 0
 825.4140625 802 888.06640625 766 888.06640625 766 c 1
 882.07421875 715 855.151367188 585 837.745117188 543 c 1
 779.274414062 546 l 1
 762.791015625 634 699.892578125 748 655.126953125 755 c 1
 672.830078125 776 847.071289062 732 777.3203125 637 c 1
 761.025390625 641 709.71875 730 586.71875 730 c 0
 428.71875 730 296.856445312 589 259.296875 393 c 4
 226.849609375 226 261.811523438 84 475.282226562 81 c 0
 564.106445312 80 652.806640625 118 712.270507812 166 c 1
 744.688476562 123 l 1
 658.171875 35 548.001953125 -17 406.001953125 -17 c 0
 202.001953125 -17 74.2216796875 92 109.721679688 299 c 4
EndSplineSet
Layer: 2
EndChar

StartChar: q
Encoding: 113 113 24
GlifName: q
Width: 700
VWidth: 79
Flags: HMW
LayerCount: 3
Back
SplineSet
665.084960938 -232 m 1
 529.305664062 -235.5390625 379.810546875 -285 377.79296875 -285 c 1
 387.579101562 -246.772460938 407.641601562 -178.05859375 426.208007812 -90 c 0
 434.995117188 -48.3251953125 449.216796875 26.759765625 463.966796875 119 c 1
 467.986328125 144.134765625 484.822265625 198.315429688 488.25390625 220 c 1
 494.041015625 256.564453125 488.678710938 286.030273438 491.109375 301 c 0
 506.48828125 395.712890625 506.947265625 467.491210938 504 592 c 1
 549 592 592 600 637 605 c 1
 591.629882812 397.09375 543.998046875 128.828125 517.227539062 -107 c 0
 508.965820312 -179.778320312 561.439453125 -188.124023438 678.841796875 -191 c 1
 665.084960938 -232 l 1
86.0205078125 228.27734375 m 0
 108.22265625 443.990234375 268.314453125 637.982421875 633.098632812 604.64453125 c 1
 563.491210938 470.760742188 l 1
 563.491210938 470.760742188 501.241210938 535.4375 391 529.06640625 c 0
 269.436523438 522.041015625 209.559570312 376.276367188 198.690429688 263.40234375 c 0
 188.719726562 159.859375 208.70703125 72.9306640625 277.395507812 71.3447265625 c 0
 377.353515625 69.037109375 480.384765625 245.627929688 499.313476562 349.9140625 c 1
 518.279296875 295.630859375 l 1
 495.413085938 191.219726562 377.046875 -12.8583984375 234.106445312 -17.2666015625 c 0
 109.169921875 -21.1201171875 72.4912109375 96.8232421875 86.0205078125 228.27734375 c 0
EndSplineSet
Fore
SplineSet
693.571289062 -232 m 1
 558.2265625 -235.5390625 414.803710938 -285 412.786132812 -285 c 1
 417.87890625 -246.772460938 429.504882812 -178.05859375 437.258789062 -90 c 0
 440.928710938 -48.3251953125 445.930664062 26.759765625 449.35546875 119 c 1
 450.2890625 144.134765625 460.47265625 198.315429688 461.241210938 220 c 1
 462.5390625 256.564453125 453.55859375 286.030273438 454.151367188 301 c 0
 457.900390625 395.712890625 449.546875 467.491210938 431.311523438 592 c 1
 476.311523438 592 518.329101562 600 562.715820312 605 c 1
 542.873046875 397.09375 528.1796875 128.828125 530.365234375 -107 c 0
 531.040039062 -179.778320312 584.538085938 -188.124023438 702.293945312 -191 c 1
 693.571289062 -232 l 1
57.9912109375 228.27734375 m 0
 53.70703125 443.990234375 189.98046875 637.982421875 558.857421875 604.64453125 c 1
 505.689453125 470.760742188 l 1
 505.689453125 470.760742188 435.498046875 535.4375 326.0390625 529.06640625 c 0
 205.337890625 522.041015625 163.358398438 376.276367188 166.348632812 263.40234375 c 0
 169.091796875 159.859375 199.751953125 72.9306640625 268.635742188 71.3447265625 c 0
 368.876953125 69.037109375 450.225585938 245.627929688 456.349609375 349.9140625 c 1
 481.98046875 295.630859375 l 1
 471.934570312 191.219726562 378.625976562 -12.8583984375 236.2265625 -17.2666015625 c 0
 111.762695312 -21.1201171875 60.6025390625 96.8232421875 57.9912109375 228.27734375 c 0
EndSplineSet
Layer: 2
EndChar

StartChar: f
Encoding: 170 170 25
GlifName: ordfeminine
Width: 664
VWidth: 0
Flags: HMW
LayerCount: 3
Back
SplineSet
16 61 m 5
 92 57 128 78 132 136 c 5
 246 152 l 5
 244 57 336 53 364 54 c 5
 374 0 l 5
 23 0 l 5
 16 61 l 5
49 520 m 5
 39 588 l 5
 180.5078125 583.043945312 252.553710938 582.5 384 588 c 5
 397 522 l 5
 205 523.526367188 l 5
 131 439.640625 l 5
 131.806119792 506.45703125 127.041471355 529.84765625 49 520 c 5
179 126 m 5
 131 117 l 5
 134 279 134 398.844726562 124 603 c 4
 112.348303638 840.875525683 287.151353994 856.606023047 384 856 c 4
 454.639648438 855.543945312 508 829 508 829 c 5
 514.097371914 773.247646186 513.364257812 750.153320312 507 697 c 5
 422 704 l 5
 418.396484375 769.711914062 397.016111001 796.076821267 368.025390625 814 c 5
 417.333946049 853.716431559 461.855471991 786.49783642 416 760.916992188 c 5
 407.370666558 785.848473737 383.248161396 801.176248786 355 800.7265625 c 4
 275.005859375 799.453125 243.676255175 727.977754595 241 601 c 4
 237.260233192 423.562812246 235.344726562 251.282226562 251 112 c 5
 179 126 l 5
EndSplineSet
Fore
Refer: 1 97 N 1 0 0 1 0 0 3
Layer: 2
EndChar

StartChar: y
Encoding: 121 121 27
GlifName: y
Width: 645
VWidth: 79
Flags: HMW
LayerCount: 3
Back
SplineSet
107 499 m 1049
2.0908203125 563 m 1,0,1
 85.208984375 568 135.561523438 585 229.090820312 616 c 1,2,-1
 232.540039062 558.078125 253 421 271.736328125 297 c 0,7,8
 282.897460938 223.1328125 309.653320312 104.299804688 333 51 c 0,0,0
 340.41796875 34.0654296875 304.166992188 78 304.166992188 78 c 1,9,10
 390.180664062 182.400390625 486.438476562 325.5625 513 472 c 1,0,0
 519.022460938 525.15625 493.990234375 545.329101562 416 544 c 5,0,0
 420.090820312 576 l 1,14,15
 453.391601562 599.602539062 521.739242166 616.423176913 551 615.763671875 c 4,0,0
 616.03515625 614.297851562 625.58918818 582.975551531 624.090820312 556 c 1,16,-1
 603.760742188 377.129882812 484.543945312 203.794921875 319.294921875 -4 c 1,21,22
 289.765625 -7 238.178710938 -12 202.415039062 -22 c 1,23,24
 209.172851562 184.998046875 173.05078125 418.817382812 107 499 c 1,0,0
 78.052734375 530.000976562 39.546875 523.006835938 -4.1357421875 520 c 1,27,-1
 2.0908203125 563 l 1,0,1
EndSplineSet
Fore
SplineSet
45.73046875 499 m 1049
-67.037109375 563 m 1,0,1
 15.4677734375 568 63.732421875 585 153.455078125 616 c 1,2,-1
 164.016601562 558.078125 201.307617188 421 235.26953125 297 c 0,7,8
 255.5 223.1328125 296.846679688 104.299804688 326.73828125 51 c 0,0,0
 336.235351562 34.0654296875 294.58984375 78 294.58984375 78 c 1,9,10
 367.78515625 182.400390625 446.46484375 325.5625 455.045898438 472 c 1,0,0
 454.541015625 525.15625 427.032226562 545.329101562 349.205078125 544 c 5,0,0
 349.3671875 576 l 1,14,15
 379.76953125 599.602539062 446.051757812 616.422851562 475.393554688 615.763671875 c 4,0,0
 540.608398438 614.297851562 554.008789062 582.975585938 555.822265625 556 c 1,16,-1
 557.455078125 377.129882812 459.521484375 203.794921875 319.786132812 -4 c 1,21,22
 290.625 -7 239.65234375 -12 205.116210938 -22 c 1,23,24
 186.458007812 184.998046875 121.626953125 418.817382812 45.73046875 499 c 1,0,0
 12.9765625 530.000976562 -24.669921875 523.006835938 -67.9833984375 520 c 1,27,-1
 -67.037109375 563 l 1,0,1
EndSplineSet
Layer: 2
EndChar

StartChar: l
Encoding: 108 108 28
Width: 309
VWidth: 79
Flags: HMW
LayerCount: 3
Back
SplineSet
117.0234375 824 m 1
 252.802734375 827.5390625 404.297851562 877 406.315429688 877 c 1
 396.529296875 838.772460938 376.466796875 770.05859375 357.900390625 682 c 0
 342.681640625 609.8203125 306.161132812 457.426757812 296.999023438 401 c 0
 287.953125 345.288085938 269.879882812 245.5078125 264.530273438 170.99609375 c 0
 261.26953125 125.57421875 271.78125 81.193359375 301.108398438 80.0615234375 c 0
 329.740234375 78.95703125 362.584960938 99.796875 408.748046875 168 c 1
 421.872070312 141 l 1
 412.228515625 117.895507812 318.736328125 -29.1474609375 216.108398438 -23.55859375 c 0
 156.521484375 -20.3134765625 135.303335825 15.8397301651 139.426757812 61 c 0
 149.889317277 175.587352446 246.411132812 459.615234375 258.880859375 685 c 0
 262.927107068 758.134128754 220.668945312 780.124023438 103.266601562 783 c 1
 117.0234375 824 l 1
EndSplineSet
Fore
SplineSet
76.76171875 857 m 5
 176.896484375 872 228.861328125 891 230.87890625 891 c 5
 205.228515625 788.525390625 176.165039062 541.170898438 171.130859375 414 c 4
 167.077148438 311.588867188 160.586914062 104.0703125 215.697265625 3.0615234375 c 5
 36.724609375 -19 l 4
 53.1171875 95.5869140625 114.942382812 459.615234375 99.73828125 685 c 4
 93.365234375 779.45703125 87.7080078125 801.953125 76.76171875 857 c 5
EndSplineSet
Layer: 2
EndChar

StartChar: u
Encoding: 117 117 29
Width: 736
VWidth: 79
Flags: HMW
LayerCount: 3
Back
SplineSet
549.756835938 586 m 1
 615.536132812 595.5390625 680.03125 614 682.048828125 614 c 1
 663.990234375 543.456054688 593.295898438 313.22265625 578.114257812 164.201171875 c 0
 575.40625 123.455078125 579.672851562 78.9599609375 614.841796875 78.45703125 c 0
 647.98828125 77.9833984375 685.502929688 103.391601562 707.481445312 140 c 1
 718.60546875 110 l 1
 676.279296875 32.1015625 592.26953125 -23.4658203125 508.841796875 -24.3388671875 c 0
 453.875 -24.9140625 436.12890625 5.5048828125 445.590820312 58 c 0
 453.711914062 103.056640625 495.094726562 197.333984375 518.915039062 306.138671875 c 0
 525.69921875 342.459960938 530.886886863 373.577854129 533.645507812 399.836914062 c 0
 541.633022041 475.869329792 549.10546875 563.416015625 549.756835938 586 c 1
562.947265625 388 m 1
 491.95703125 150 313.819335938 -17.4306640625 187.087890625 -15 c 0
 127.42578125 -13.85546875 99.857421875 9.8642578125 100.659179688 73 c 0
 101.788085938 161.751953125 148.604492188 268.08984375 168.921875 376 c 0
 172.234470784 393.593519634 179.953685438 430.319492632 179.263190476 461.952490139 c 1
 171.197138893 509.768266949 135.937736137 527.431064282 49.158203125 528 c 1
 52.9150390625 569 l 1
 188.694335938 572.5390625 327.189453125 612 329.20703125 612 c 1
 323.733885917 590.619542564 312.855935919 559.701818408 299.474783238 521.196668266 c 0
 281.645850923 452.06820596 224.61058246 312.742059686 218.471679688 170 c 0
 216.13671875 115.712890625 227.014648438 83.427734375 270 83.2080078125 c 0
 375.436523438 82.6689453125 521.145507812 304.771484375 536.471679688 412 c 1
 562.947265625 388 l 1
EndSplineSet
Fore
SplineSet
477.8046875 586 m 1
 542.413085938 595.5390625 604.641601562 614 606.659179688 614 c 1
 597.262695312 543.456054688 554.836914062 313.22265625 557.953125 164.201171875 c 0
 560.248046875 123.455078125 569.977539062 78.9599609375 605.208007812 78.45703125 c 0
 638.413085938 77.9833984375 672.807617188 103.391601562 690.291992188 140 c 1
 705.099609375 110 l 1
 672.337890625 32.1015625 595.150390625 -23.4658203125 511.830078125 -24.3388671875 c 0
 456.93359375 -24.9140625 435.453125 5.5048828125 438.469726562 58 c 0
 441.05859375 103.056640625 470.865234375 197.333984375 481.326171875 306.138671875 c 0
 483.650390625 342.459960938 485.017578125 373.578125 484.551757812 399.836914062 c 0
 483.204101562 475.869140625 479.926757812 563.416015625 477.8046875 586 c 1
515.306640625 388 m 1
 473.5390625 150 315.959960938 -17.4306640625 188.9296875 -15 c 0
 129.126953125 -13.85546875 98.646484375 9.8642578125 91.6962890625 73 c 0
 81.927734375 161.751953125 115.6875 268.08984375 122.754882812 376 c 0
 123.907226562 393.59375 127.1171875 430.319335938 122.54296875 461.952148438 c 1
 108.60546875 509.768554688 71.177734375 527.430664062 -15.671875 528 c 1
 -16.94921875 569 l 1
 118.395507812 572.5390625 252.044921875 612 254.0625 612 c 1
 251.21484375 590.619140625 244.1328125 559.702148438 235.479492188 521.196289062 c 0
 226.138671875 452.068359375 186.2109375 312.7421875 197.598632812 170 c 0
 201.928710938 115.712890625 216.771484375 83.427734375 259.783203125 83.2080078125 c 0
 365.286132812 82.6689453125 483.724609375 304.771484375 485.884765625 412 c 1
 515.306640625 388 l 1
EndSplineSet
Layer: 2
EndChar

StartChar: k
Encoding: 107 107 30
Width: 608
VWidth: 79
Flags: HMW
LayerCount: 3
Back
SplineSet
7.0234375 824 m 1
 142.802734375 827.5390625 294.297851562 877 296.315429688 877 c 1
 286.529296875 838.772460938 266.466796875 770.05859375 247.900390625 682 c 0
 232.681640625 609.8203125 211.161132812 457.426757812 201.999023438 401 c 0
 184.100801299 290.768360707 176.827424597 193.170884688 181.108398438 0.0615234375 c 1
 23.4267578125 -19 l 0
 43.7998046875 51.359375 79.958984375 211.131835938 92.447265625 270 c 0
 105.07421875 329.521484375 146.114257812 588.615234375 148.880859375 685 c 0
 150.982421875 758.215820312 110.668945312 780.124023438 -6.7333984375 783 c 1
 7.0234375 824 l 1
205.53125 308.875 m 1
 326.08203125 366.173828125 427.637695312 471.717773438 451.634765625 548 c 1
 537.400390625 531 l 0
 535.477539062 419.388671875 380.286132812 312.526367188 290.129882812 281.205078125 c 1
 306.336914062 214.439453125 357.388671875 85.560546875 472 84.2978515625 c 0
 539.203125 83.5576171875 565.1953125 123.450195312 579.2265625 144 c 1
 591 114 l 1
 577.881835938 79 536.044921875 -22.4736328125 425 -17 c 0
 283.724609375 -10.037109375 226.62890625 205.080078125 205.53125 308.875 c 1
EndSplineSet
Fore
SplineSet
50.76171875 841 m 5
 152.124023438 846 202.861328125 875 204.87890625 875 c 5
 199.786132812 836.772460938 179.284179688 767.05859375 171.529296875 679 c 4
 165.173828125 606.8203125 147.364257812 454.426757812 145.130859375 398 c 4
 142.92578125 342.288085938 137.103515625 242.5078125 140.903320312 167.99609375 c 4
 143.219726562 122.57421875 156.547851562 18.193359375 189.697265625 -12.9384765625 c 5
 10.724609375 -35 l 4
 27.1171875 79.5869140625 87.7138671875 453.615234375 72.509765625 679 c 4
 66.1376953125 773.45703125 58.19921875 781.953125 50.76171875 841 c 5
167.606445312 308.875 m 1
 281.12109375 366.173828125 369.717773438 471.717773438 384.348632812 548 c 1
 472.202148438 531 l 0
 483.983398438 419.388671875 341.913085938 312.526367188 255.602539062 281.205078125 c 1
 280.006835938 214.439453125 346.8828125 85.560546875 461.649414062 84.2978515625 c 0
 528.943359375 83.5576171875 550.037109375 123.450195312 561.545898438 144 c 1
 577.002929688 114 l 1
 568.181640625 79 538.8046875 -22.4736328125 427.086914062 -17 c 0
 284.95703125 -10.037109375 201.448242188 205.080078125 167.606445312 308.875 c 1
EndSplineSet
Layer: 2
EndChar

StartChar: j
Encoding: 106 106 31
Width: 392
VWidth: 79
Flags: HMW
LayerCount: 3
Back
SplineSet
191.729492188 782 m 0
 199.134765625 824 238.072265625 852 279.072265625 852 c 0
 329.072265625 852 347.1953125 813 339.790039062 771 c 0
 332.383789062 729 293.447265625 701 252.447265625 701 c 0
 211.447265625 701 184.32421875 740 191.729492188 782 c 0
87.0234375 544 m 1
 222.802734375 547.5390625 364.297851562 597 366.315429688 597 c 1
 310.756859905 458.097673472 283.642578125 247.211914062 263.530273438 80.99609375 c 0
 247.592773438 -50.7197265625 237.62890625 -159.123046875 68 -166.302734375 c 0
 3.84375 -169.017578125 -46.0712890625 -139.732421875 -62.8916015625 -133.55859375 c 0
 -47.931640625 -84 l 5
 1.955078125 -106.087890625 109.044921875 -103.818359375 150.426757812 -9 c 0
 200.591796875 105.942382812 203.411132812 209.615234375 209.880859375 425 c 0
 212.080078125 498.212890625 170.668945312 500.124023438 73.2666015625 503 c 1
 87.0234375 544 l 1
EndSplineSet
Fore
SplineSet
95.7119140625 782 m 0
 97.9599609375 824 133.459960938 852 174.459960938 852 c 0
 224.459960938 852 247.37109375 813 245.123046875 771 c 0
 242.874023438 729 207.375 701 166.375 701 c 0
 125.375 701 93.4638671875 740 95.7119140625 782 c 0
20.228515625 544 m 1
 155.573242188 547.5390625 290.995117188 597 293.012695312 597 c 1
 254.509765625 458.09765625 253.2890625 247.211914062 253.584960938 80.99609375 c 0
 253.8203125 -50.7197265625 257.166992188 -159.123046875 88.4189453125 -166.302734375 c 0
 24.5966796875 -169.017578125 -28.9140625 -139.732421875 -46.4921875 -133.55859375 c 0
 -37.6181640625 -84 l 5
 14.9814453125 -106.087890625 121.791992188 -103.818359375 151.532226562 -9 c 0
 187.583984375 105.942382812 177.673828125 209.615234375 157.697265625 425 c 0
 150.907226562 498.212890625 109.26171875 500.124023438 11.505859375 503 c 1
 20.228515625 544 l 1
EndSplineSet
Layer: 2
EndChar

StartChar: comma
Encoding: 44 44 32
Width: 196
VWidth: 79
Flags: HMW
LayerCount: 3
Back
SplineSet
32.806640625 35.2001953125 m 0
 39.529296875 85.7998046875 82.7470703125 118.799804688 124.546875 118.799804688 c 0
 175.147460938 118.799804688 196.50390625 90.2001953125 188.939453125 47.2998046875 c 0
 181.375976562 4.400390625 150.451171875 -27.5 108.004882812 -37.400390625 c 1
 88.8515625 -27.5 25.6962890625 -17.599609375 32.806640625 35.2001953125 c 0
24.6123046875 -129.799804688 m 1
 33.345703125 -117.700195312 71.1259765625 -59.400390625 69.4970703125 18.7001953125 c 9
 136.333984375 48.400390625 l 25
 141.126953125 13.2001953125 196.053710938 81.400390625 188.939453125 47.2998046875 c 0
 176.4609375 -11 82.71875 -130.900390625 51.3388671875 -152.900390625 c 1
 24.6123046875 -129.799804688 l 1
EndSplineSet
Fore
SplineSet
32.806640625 35.2001953125 m 0
 39.529296875 85.7998046875 82.7470703125 118.799804688 124.546875 118.799804688 c 0
 175.147460938 118.799804688 196.50390625 90.2001953125 188.939453125 47.2998046875 c 0
 181.375976562 4.400390625 150.451171875 -27.5 108.004882812 -37.400390625 c 1
 88.8515625 -27.5 25.6962890625 -17.599609375 32.806640625 35.2001953125 c 0
24.6123046875 -129.799804688 m 1
 33.345703125 -117.700195312 71.1259765625 -59.400390625 69.4970703125 18.7001953125 c 9
 136.333984375 48.400390625 l 25
 141.126953125 13.2001953125 196.053710938 81.400390625 188.939453125 47.2998046875 c 0
 176.4609375 -11 82.71875 -130.900390625 51.3388671875 -152.900390625 c 1
 24.6123046875 -129.799804688 l 1
EndSplineSet
Layer: 2
EndChar

StartChar: acute
Encoding: 180 180 33
Width: 496
VWidth: 0
Flags: HMW
LayerCount: 3
Back
SplineSet
73 1120 m 9
 83 1066 l 17
 191 1081 368 1158 431 1204 c 9
 371 1298 l 21
 308 1232 165 1142 73 1120 c 9
EndSplineSet
Fore
SplineSet
73 1120 m 9
 83 1066 l 17
 191 1081 368 1158 431 1204 c 9
 371 1298 l 21
 308 1232 165 1142 73 1120 c 9
EndSplineSet
Layer: 2
EndChar

StartChar: x
Encoding: 168 168 34
Width: 496
VWidth: 0
Flags: HMW
LayerCount: 3
Back
SplineSet
73 1140 m 13
 83 1066 l 21
 191 1081 368 1158 431 1204 c 13
 371 1298 l 21
 328 1242 165 1162 73 1140 c 13
EndSplineSet
Fore
SplineSet
73 1140 m 13
 83 1066 l 21
 191 1081 368 1158 431 1204 c 13
 371 1298 l 21
 328 1242 165 1162 73 1140 c 13
EndSplineSet
Layer: 2
EndChar

StartChar: E
Encoding: 69 69 36
Width: 679
VWidth: 79
Flags: HMW
LayerCount: 3
Back
SplineSet
50.755859375 61 m 5
 119.639648438 49 148.693359375 89 164.157226562 137 c 5
 287.803710938 135 l 1
 285.629882812 117 283.577148438 77 318.872070312 73 c 0
 407.28515625 64 513.9296875 79 552.1640625 86 c 1
 487.11328125 29 l 1
 526.990234375 68 575.567382812 145 592.970703125 204 c 1
 666.380859375 212 l 1
 666.380859375 212 662.509765625 139 652.106445312 80 c 24
 647.874023438 56 631 0 631 0 c 1
 440 0 239 0 48 0 c 5
 50.755859375 61 l 5
192.061523438 800 m 5
 267.00390625 794 413.1796875 795 496.1796875 795 c 0
 582.1796875 795 691.356445312 796 789.23828125 801 c 1
 789.23828125 801 782.1875 744 777.955078125 720 c 24
 767.551757812 661 745.680664062 588 745.680664062 588 c 1
 675.090820312 596 l 1
 678.494140625 655 667.071289062 732 630.948242188 771 c 1
 717.307617188 722 l 1
 637.71875 730 567.248046875 733 468.248046875 733 c 0
 418.248046875 733 400.958007812 703 392.66796875 673 c 0
 338.049804688 471 296.913085938 198 289.567382812 145 c 0
 283.456054688 99 281.758789062 44 340.758789062 44 c 1
 321.584960938 26 l 1
 117.290039062 30 l 5
 117.290039062 30 144.6953125 72 163.98046875 136 c 4
 196.7265625 265 241.223632812 489 266.905273438 663 c 5
 268.368164062 711 264.010742188 743 187.305664062 739 c 5
 192.061523438 800 l 5
258.711914062 367 m 1
 272.11328125 443 l 1
 472.2890625 444 l 1
 619.287109375 461 l 1
 603.241210938 370 l 1
 479.475585938 377 384.064453125 369 258.711914062 367 c 1
EndSplineSet
Fore
SplineSet
50.755859375 61 m 5
 119.639648438 49 148.693359375 89 164.157226562 137 c 5
 287.803710938 135 l 1
 285.629882812 117 283.577148438 77 318.872070312 73 c 0
 407.28515625 64 513.9296875 79 552.1640625 86 c 1
 487.11328125 29 l 1
 526.990234375 68 575.567382812 145 592.970703125 204 c 1
 666.380859375 212 l 1
 666.380859375 212 662.509765625 139 652.106445312 80 c 24
 647.874023438 56 631 0 631 0 c 1
 440 0 239 0 48 0 c 5
 50.755859375 61 l 5
192.061523438 800 m 5
 267.00390625 794 413.1796875 795 496.1796875 795 c 0
 582.1796875 795 691.356445312 796 789.23828125 801 c 1
 789.23828125 801 782.1875 744 777.955078125 720 c 24
 767.551757812 661 745.680664062 588 745.680664062 588 c 1
 675.090820312 596 l 1
 678.494140625 655 667.071289062 732 630.948242188 771 c 1
 717.307617188 722 l 1
 637.71875 730 567.248046875 733 468.248046875 733 c 0
 418.248046875 733 400.958007812 703 392.66796875 673 c 0
 338.049804688 471 296.913085938 198 289.567382812 145 c 0
 283.456054688 99 281.758789062 44 340.758789062 44 c 1
 321.584960938 26 l 1
 117.290039062 30 l 5
 117.290039062 30 144.6953125 72 163.98046875 136 c 4
 196.7265625 265 241.223632812 489 266.905273438 663 c 5
 268.368164062 711 264.010742188 743 187.305664062 739 c 5
 192.061523438 800 l 5
258.711914062 367 m 1
 272.11328125 443 l 1
 472.2890625 444 l 1
 619.287109375 461 l 1
 603.241210938 370 l 1
 479.475585938 377 384.064453125 369 258.711914062 367 c 1
EndSplineSet
Layer: 2
Colour: ff0000
EndChar

StartChar: F
Encoding: 70 70 37
Width: 691
VWidth: 79
Flags: HMW
LayerCount: 3
Back
SplineSet
42.755859375 61 m 5
 125.05078125 57 152.693359375 89 169.157226562 137 c 5
 292.744140625 146 l 1
 273.993164062 51 385.81640625 50 402.993164062 51 c 1
 404 0 l 1
 42 0 l 5
 42.755859375 61 l 5
192.061523438 800 m 5
 267.00390625 794 393.00390625 794 476.00390625 794 c 0
 562.00390625 794 691.356445312 796 819.23828125 801 c 1
 819.23828125 801 812.1875 744 807.955078125 720 c 24
 797.551757812 661 775.680664062 588 775.680664062 588 c 1
 705.090820312 596 l 1
 708.494140625 655 697.071289062 732 660.948242188 771 c 1
 737.131835938 721 l 1
 481.366210938 728 l 2
 423.541992188 729 403.310546875 705 392.905273438 663 c 0
 338.11328125 443 298.618164062 202 292.567382812 145 c 0
 287.80859375 101 295.639648438 49 374.639648438 49 c 1
 350.176757812 1 l 1
 117 0 l 5
 117 0 148.6953125 72 167.98046875 136 c 4
 201.608398438 270 239.989257812 482 266.905273438 663 c 5
 268.368164062 711 264.010742188 743 187.305664062 739 c 5
 192.061523438 800 l 5
250.475585938 377 m 5
 262.11328125 443 l 5
 502.2890625 444 l 1
 649.287109375 461 l 1
 633.241210938 370 l 1
 509.475585938 377 375.828125 379 250.475585938 377 c 5
EndSplineSet
Fore
SplineSet
42.755859375 61 m 5
 125.05078125 57 152.693359375 89 169.157226562 137 c 5
 292.744140625 146 l 1
 273.993164062 51 385.81640625 50 402.993164062 51 c 1
 404 0 l 1
 42 0 l 5
 42.755859375 61 l 5
192.061523438 800 m 5
 267.00390625 794 393.00390625 794 476.00390625 794 c 0
 562.00390625 794 691.356445312 796 819.23828125 801 c 1
 819.23828125 801 812.1875 744 807.955078125 720 c 24
 797.551757812 661 775.680664062 588 775.680664062 588 c 1
 705.090820312 596 l 1
 708.494140625 655 697.071289062 732 660.948242188 771 c 1
 737.131835938 721 l 1
 481.366210938 728 l 2
 423.541992188 729 403.310546875 705 392.905273438 663 c 0
 338.11328125 443 298.618164062 202 292.567382812 145 c 0
 287.80859375 101 295.639648438 49 374.639648438 49 c 1
 350.176757812 1 l 1
 117 0 l 5
 117 0 148.6953125 72 167.98046875 136 c 4
 201.608398438 270 239.989257812 482 266.905273438 663 c 5
 268.368164062 711 264.010742188 743 187.305664062 739 c 5
 192.061523438 800 l 5
250.475585938 377 m 5
 262.11328125 443 l 5
 502.2890625 444 l 1
 649.287109375 461 l 1
 633.241210938 370 l 1
 509.475585938 377 375.828125 379 250.475585938 377 c 5
EndSplineSet
Layer: 2
Colour: ff0000
EndChar

StartChar: P
Encoding: 80 80 38
Width: 650
VWidth: 79
Flags: HMW
LayerCount: 3
Back
SplineSet
157.532226562 797 m 1
 343.416992188 785 417.4140625 802 567.4140625 802 c 0
 722.4140625 802 765.426757812 717 747.030273438 607 c 0
 719.231445312 438 574.426757812 303 416.07421875 301 c 4
 364.8984375 300 299.366210938 314 299.366210938 314 c 5
 280.734375 214 277.736328125 197 274.688476562 123 c 0
 271.4609375 65 315.755859375 61 368.755859375 61 c 1
 380 0 l 1
 311.823242188 -1 107 0 33 0 c 1
 33.755859375 61 l 1
 110.993164062 51 146.577148438 77 157.393554688 127 c 0
 204.303710938 342 229.344726562 467 249.556640625 627 c 0
 256.784179688 685 249.658203125 741 156.423828125 734 c 1
 157.532226562 797 l 1
318.118164062 409 m 5
 347.533203125 383 388.536132812 366 440.711914062 367 c 4
 553.888671875 368 607.815429688 464 627.682617188 571 c 0
 648.607421875 684 586.1875 744 506.540039062 746 c 0
 460.715820312 747 405.12890625 738 380.541992188 729 c 1
 358.96484375 652 336.397460938 507 318.118164062 409 c 5
EndSplineSet
Fore
SplineSet
157.532226562 797 m 1
 343.416992188 785 417.4140625 802 567.4140625 802 c 0
 722.4140625 802 765.426757812 717 747.030273438 607 c 0
 719.231445312 438 574.426757812 303 416.07421875 301 c 4
 364.8984375 300 299.366210938 314 299.366210938 314 c 5
 280.734375 214 277.736328125 197 274.688476562 123 c 0
 271.4609375 65 315.755859375 61 368.755859375 61 c 1
 380 0 l 1
 311.823242188 -1 107 0 33 0 c 1
 33.755859375 61 l 1
 110.993164062 51 146.577148438 77 157.393554688 127 c 0
 204.303710938 342 229.344726562 467 249.556640625 627 c 0
 256.784179688 685 249.658203125 741 156.423828125 734 c 1
 157.532226562 797 l 1
318.118164062 409 m 5
 347.533203125 383 388.536132812 366 440.711914062 367 c 4
 553.888671875 368 607.815429688 464 627.682617188 571 c 0
 648.607421875 684 586.1875 744 506.540039062 746 c 0
 460.715820312 747 405.12890625 738 380.541992188 729 c 1
 358.96484375 652 336.397460938 507 318.118164062 409 c 5
EndSplineSet
Layer: 2
EndChar

StartChar: S
Encoding: 83 83 39
Width: 636
VWidth: 153
Flags: HMW
LayerCount: 3
Back
SplineSet
69.2314453125 24 m 5
 72.1669921875 69 88.2724609375 149 113.849609375 226 c 5
 207.91015625 215 l 5
 201.331054688 155 205.280273438 98 235.521484375 54 c 5
 178.990234375 68 161.864257812 124 160.5625 179 c 5
 189.98046875 136 218.524414062 63.0537109375 316.521484375 54 c 0
 435.58203125 43 493.883789062 95.4609375 513.331054688 155 c 0
 569.834960938 328 210.833007812 345 212.685546875 554 c 0
 214.90234375 680 328.530273438 814 528.825195312 810 c 0
 648.47265625 808 722.830078125 776 722.830078125 776 c 1
 720.366210938 728 701.3203125 637 686.561523438 593 c 1
 596.501953125 604 l 1
 602.96484375 652 598.366210938 728 582.297851562 790 c 2
 623.204101562 625 l 1
 608.259765625 648 597.950195312 754 484.126953125 755 c 0
 403.302734375 756 354.018554688 692 350.8515625 623 c 0
 342.700195312 452 662.934570312 459 643.083984375 233 c 0
 629.634765625 83 521.178710938 -16 301.001953125 -17 c 0
 167.896484375 -17.6044921875 69.2314453125 24 69.2314453125 24 c 5
EndSplineSet
Fore
SplineSet
69.2314453125 24 m 5
 72.1669921875 69 88.2724609375 149 113.849609375 226 c 5
 207.91015625 215 l 5
 201.331054688 155 205.280273438 98 235.521484375 54 c 5
 178.990234375 68 161.864257812 124 160.5625 179 c 5
 189.98046875 136 218.524414062 63.0537109375 316.521484375 54 c 0
 435.58203125 43 493.883789062 95.4609375 513.331054688 155 c 0
 569.834960938 328 210.833007812 345 212.685546875 554 c 0
 214.90234375 680 328.530273438 814 528.825195312 810 c 0
 648.47265625 808 722.830078125 776 722.830078125 776 c 1
 720.366210938 728 701.3203125 637 686.561523438 593 c 1
 596.501953125 604 l 1
 602.96484375 652 598.366210938 728 582.297851562 790 c 2
 623.204101562 625 l 1
 608.259765625 648 597.950195312 754 484.126953125 755 c 0
 403.302734375 756 354.018554688 692 350.8515625 623 c 0
 342.700195312 452 662.934570312 459 643.083984375 233 c 0
 629.634765625 83 521.178710938 -16 301.001953125 -17 c 0
 167.896484375 -17.6044921875 69.2314453125 24 69.2314453125 24 c 5
EndSplineSet
Layer: 2
EndChar

StartChar: U
Encoding: 85 85 40
Width: 767
VWidth: 79
Flags: HMW
LayerCount: 3
Back
SplineSet
132.061523438 800 m 1
 197.00390625 794 214.474609375 791 286.651367188 792 c 0
 327.651367188 792 417.827148438 793 480.23828125 801 c 1
 480.23828125 801 477.126953125 755 476.776367188 736 c 1
 378.245117188 750 339.725585938 679 322.912109375 612 c 0
 291.341796875 484 256.545898438 298 252.963867188 255 c 0
 242.333007812 138 292.329101562 53.642578125 428.4609375 65 c 0
 524.795898438 73.037109375 603.884765625 146.329101562 634.079101562 267 c 4
 664.5546875 388.791992188 678.317382812 515.369140625 704.025390625 641 c 1
 704.202148438 642 l 1
 719.248046875 733 664.12890625 738 592.366210938 728 c 1
 592.1875 744 596.297851562 790 595.885742188 799 c 1
 660.827148438 793 708.297851562 790 780.474609375 791 c 0
 821.474609375 791 846.651367188 792 909.061523438 800 c 1
 909.061523438 800 905.950195312 754 905.600585938 735 c 1
 856.834960938 742 808.25 716 792.905273438 663 c 1
 757.987304688 499 736.051757812 346.626953125 708.318359375 240 c 4
 658.639648438 49 497.53125 -14 368.53125 -14 c 0
 253.53125 -14 97.2900390625 30 133.436523438 235 c 0
 155.301757812 359 201.038085938 556 211.849609375 640 c 0
 220.368164062 711 213.482421875 740 128.541992188 729 c 1
 128.36328125 745 132.474609375 791 132.061523438 800 c 1
EndSplineSet
Fore
SplineSet
132.061523438 800 m 1
 197.00390625 794 214.474609375 791 286.651367188 792 c 0
 327.651367188 792 417.827148438 793 480.23828125 801 c 1
 480.23828125 801 477.126953125 755 476.776367188 736 c 1
 378.245117188 750 339.725585938 679 322.912109375 612 c 0
 291.341796875 484 256.545898438 298 252.963867188 255 c 0
 242.333007812 138 292.329101562 53.642578125 428.4609375 65 c 0
 524.795898438 73.037109375 603.884765625 146.329101562 634.079101562 267 c 4
 664.5546875 388.791992188 678.317382812 515.369140625 704.025390625 641 c 1
 704.202148438 642 l 1
 719.248046875 733 664.12890625 738 592.366210938 728 c 1
 592.1875 744 596.297851562 790 595.885742188 799 c 1
 660.827148438 793 708.297851562 790 780.474609375 791 c 0
 821.474609375 791 846.651367188 792 909.061523438 800 c 1
 909.061523438 800 905.950195312 754 905.600585938 735 c 1
 856.834960938 742 808.25 716 792.905273438 663 c 1
 757.987304688 499 736.051757812 346.626953125 708.318359375 240 c 4
 658.639648438 49 497.53125 -14 368.53125 -14 c 0
 253.53125 -14 97.2900390625 30 133.436523438 235 c 0
 155.301757812 359 201.038085938 556 211.849609375 640 c 0
 220.368164062 711 213.482421875 740 128.541992188 729 c 1
 128.36328125 745 132.474609375 791 132.061523438 800 c 1
EndSplineSet
Layer: 2
Colour: ff0000
EndChar

StartChar: I
Encoding: 73 73 41
Width: 422
VWidth: 79
Flags: HMW
LayerCount: 3
Back
SplineSet
25.1669921875 69 m 1
 95.521484375 54 156.9296875 79 176.565429688 162 c 0
 204.137695312 273 243.4609375 479 268.377929688 643 c 5
 283.423828125 734 228.305664062 739 156.541992188 729 c 5
 156.36328125 745 160.474609375 791 160.061523438 800 c 5
 225.00390625 794 272.474609375 791 344.651367188 792 c 4
 385.651367188 792 475.827148438 793 538.23828125 801 c 5
 538.23828125 801 535.126953125 755 534.776367188 736 c 5
 485.010742188 743 412.955078125 720 399.2578125 665 c 4
 355.166015625 483 296.796875 186 294.509765625 139 c 0
 293.166992188 69 347.932617188 62 401.166992188 69 c 1
 400 0 l 1
 20.8232421875 -1 l 1
 25.1669921875 69 l 1
EndSplineSet
Fore
SplineSet
25.1669921875 69 m 1
 95.521484375 54 156.9296875 79 176.565429688 162 c 0
 204.137695312 273 243.4609375 479 268.377929688 643 c 5
 283.423828125 734 228.305664062 739 156.541992188 729 c 5
 156.36328125 745 160.474609375 791 160.061523438 800 c 5
 225.00390625 794 272.474609375 791 344.651367188 792 c 4
 385.651367188 792 475.827148438 793 538.23828125 801 c 5
 538.23828125 801 535.126953125 755 534.776367188 736 c 5
 485.010742188 743 412.955078125 720 399.2578125 665 c 4
 355.166015625 483 296.796875 186 294.509765625 139 c 0
 293.166992188 69 347.932617188 62 401.166992188 69 c 1
 400 0 l 1
 20.8232421875 -1 l 1
 25.1669921875 69 l 1
EndSplineSet
Layer: 2
EndChar

StartChar: O
Encoding: 79 79 42
Width: 806
VWidth: 153
Flags: HMW
LayerCount: 3
Back
SplineSet
83.54296875 315 m 4
 132.854492188 606 343.766601562 804 579.590820312 803 c 4
 776.4140625 802 894.900390625 697 841.231445312 438 c 4
 793.147460938 205 638.649414062 -19 352.53125 -14 c 4
 124.236328125 -10 51.3359375 121 83.54296875 315 c 4
233.470703125 411 m 4
 191.852539062 209 264.345703125 53 428.166992188 69 c 4
 568.811523438 84 680.908203125 232 716.236328125 404 c 4
 756.620117188 599 667.245117188 750 502.013671875 726 c 4
 435.25 716 284.19921875 659 233.470703125 411 c 4
EndSplineSet
Fore
SplineSet
83.54296875 315 m 4
 132.854492188 606 343.766601562 804 579.590820312 803 c 4
 776.4140625 802 894.900390625 697 841.231445312 438 c 4
 793.147460938 205 638.649414062 -19 352.53125 -14 c 4
 124.236328125 -10 51.3359375 121 83.54296875 315 c 4
233.470703125 411 m 4
 191.852539062 209 264.345703125 53 428.166992188 69 c 4
 568.811523438 84 680.908203125 232 716.236328125 404 c 4
 756.620117188 599 667.245117188 750 502.013671875 726 c 4
 435.25 716 284.19921875 659 233.470703125 411 c 4
EndSplineSet
Layer: 2
EndChar

StartChar: T
Encoding: 84 84 43
Width: 620
VWidth: 79
Flags: HMW
LayerCount: 3
Back
SplineSet
99.7958984375 600 m 1
 131.953125 737 127.958007812 703 146.061523438 800 c 1
 253.00390625 794 321.474609375 791 439.651367188 792 c 0
 508.651367188 792 665.827148438 793 769.23828125 801 c 1
 762.3671875 773.125 720.391601562 592.036132812 719.680664062 588 c 1
 649.090820312 596 l 1
 652.494140625 655 641.071289062 732 604.948242188 771 c 1
 677.78125 702 l 1
 594.248046875 733 512.131835938 721 428.366210938 728 c 1
 337.189453125 727 224.307617188 722 187.484375 723 c 1
 248.008789062 760 l 1
 203.661132812 724 189.436523438 649 179.088867188 613 c 1
 99.7958984375 600 l 1
135.755859375 61 m 1
 211.05078125 57 239.693359375 89 255.157226562 137 c 1
 381.744140625 146 l 1
 362.993164062 51 448.81640625 50 466.993164062 51 c 1
 468 0 l 1
 135 0 l 1
 135.755859375 61 l 1
309.83203125 759 m 5
 372.479492188 757 517.53515625 780 517.53515625 780 c 1
 458.680664062 588 387.618164062 202 381.567382812 145 c 0
 376.80859375 101 356.639648438 49 438.639648438 49 c 1
 414.176757812 1 l 1
 202 0 l 1
 202 0 237.6953125 72 253.98046875 136 c 0
 286.903320312 266 334.984375 516 359.252929688 699 c 0
 365.010742188 743 344.540039062 746 314.540039062 746 c 5
 309.83203125 759 l 5
EndSplineSet
Fore
SplineSet
99.7958984375 600 m 1
 131.953125 737 127.958007812 703 146.061523438 800 c 1
 253.00390625 794 321.474609375 791 439.651367188 792 c 0
 508.651367188 792 665.827148438 793 769.23828125 801 c 1
 762.3671875 773.125 720.391601562 592.036132812 719.680664062 588 c 1
 649.090820312 596 l 1
 652.494140625 655 641.071289062 732 604.948242188 771 c 1
 677.78125 702 l 1
 594.248046875 733 512.131835938 721 428.366210938 728 c 1
 337.189453125 727 224.307617188 722 187.484375 723 c 1
 248.008789062 760 l 1
 203.661132812 724 189.436523438 649 179.088867188 613 c 1
 99.7958984375 600 l 1
135.755859375 61 m 1
 211.05078125 57 239.693359375 89 255.157226562 137 c 1
 381.744140625 146 l 1
 362.993164062 51 448.81640625 50 466.993164062 51 c 1
 468 0 l 1
 135 0 l 1
 135.755859375 61 l 1
309.83203125 759 m 5
 372.479492188 757 517.53515625 780 517.53515625 780 c 1
 458.680664062 588 387.618164062 202 381.567382812 145 c 0
 376.80859375 101 356.639648438 49 438.639648438 49 c 1
 414.176757812 1 l 1
 202 0 l 1
 202 0 237.6953125 72 253.98046875 136 c 0
 286.903320312 266 334.984375 516 359.252929688 699 c 0
 365.010742188 743 344.540039062 746 314.540039062 746 c 5
 309.83203125 759 l 5
EndSplineSet
Layer: 2
EndChar

StartChar: R
Encoding: 82 82 44
Width: 798
VWidth: 79
Flags: HMW
LayerCount: 3
Back
SplineSet
157.532226562 797 m 1
 343.416992188 785 417.4140625 802 567.4140625 802 c 0
 722.4140625 802 765.426757812 717 747.030273438 607 c 0
 719.231445312 438 579.716796875 333 421.364257812 331 c 0
 370.1875 330 301.129882812 324 301.129882812 324 c 1
 282.497070312 224 277.736328125 197 274.688476562 123 c 0
 271.4609375 65 315.755859375 61 368.755859375 61 c 1
 380 0 l 1
 311.823242188 -1 107 0 33 0 c 1
 33.755859375 61 l 1
 110.993164062 51 146.577148438 77 157.393554688 127 c 0
 204.303710938 342 229.344726562 467 249.556640625 627 c 0
 256.784179688 685 249.658203125 741 156.423828125 734 c 1
 157.532226562 797 l 1
319.880859375 419 m 5
 344.059570312 403 393.275390625 390.890625 446.001953125 397 c 0
 540.94140625 408 597.815429688 464 617.682617188 571 c 0
 638.607421875 684 586.1875 744 506.540039062 746 c 0
 460.715820312 747 405.12890625 738 380.541992188 729 c 1
 358.96484375 652 338.161132812 517 319.880859375 419 c 5
388.064453125 369 m 1
 415.830078125 362 501.475585938 377 537.23828125 387 c 1
 537.23828125 387 656.580078125 60 806.755859375 61 c 1
 808 0 l 1
 694.881835938 5 616.529296875 3 502 0 c 1
 498.05078125 57 l 1
 533.345703125 53 592.755859375 61 559.216796875 126 c 1
 542.506835938 156 462.424804688 320 388.064453125 369 c 1
EndSplineSet
Fore
SplineSet
157.532226562 797 m 1
 343.416992188 785 417.4140625 802 567.4140625 802 c 0
 722.4140625 802 765.426757812 717 747.030273438 607 c 0
 719.231445312 438 579.716796875 333 421.364257812 331 c 0
 370.1875 330 301.129882812 324 301.129882812 324 c 1
 282.497070312 224 277.736328125 197 274.688476562 123 c 0
 271.4609375 65 315.755859375 61 368.755859375 61 c 1
 380 0 l 1
 311.823242188 -1 107 0 33 0 c 1
 33.755859375 61 l 1
 110.993164062 51 146.577148438 77 157.393554688 127 c 0
 204.303710938 342 229.344726562 467 249.556640625 627 c 0
 256.784179688 685 249.658203125 741 156.423828125 734 c 1
 157.532226562 797 l 1
319.880859375 419 m 5
 344.059570312 403 393.275390625 390.890625 446.001953125 397 c 0
 540.94140625 408 597.815429688 464 617.682617188 571 c 0
 638.607421875 684 586.1875 744 506.540039062 746 c 0
 460.715820312 747 405.12890625 738 380.541992188 729 c 1
 358.96484375 652 338.161132812 517 319.880859375 419 c 5
388.064453125 369 m 1
 415.830078125 362 501.475585938 377 537.23828125 387 c 1
 537.23828125 387 656.580078125 60 806.755859375 61 c 1
 808 0 l 1
 694.881835938 5 616.529296875 3 502 0 c 1
 498.05078125 57 l 1
 533.345703125 53 592.755859375 61 559.216796875 126 c 1
 542.506835938 156 462.424804688 320 388.064453125 369 c 1
EndSplineSet
Layer: 2
EndChar

StartChar: Q
Encoding: 81 81 45
Width: 842
VWidth: 153
Flags: HMW
LayerCount: 3
Back
SplineSet
333.294921875 -4 m 1
 405.881835938 5 l 1
 444.072265625 -96 544.783203125 -126 657.4296875 -128 c 0
 780.077148438 -130 896.8359375 -86 896.8359375 -86 c 1
 862.029296875 -204 l 1
 795.502929688 -224 725.681640625 -240 612.857421875 -239 c 0
 369.563476562 -235 349.952148438 -74 333.294921875 -4 c 1
EndSplineSet
Refer: 42 79 N 1 0 0.176327 1 0 0 2
Fore
SplineSet
333.294921875 -4 m 1
 405.881835938 5 l 1
 444.072265625 -96 544.783203125 -126 657.4296875 -128 c 0
 780.077148438 -130 896.8359375 -86 896.8359375 -86 c 1
 862.029296875 -204 l 1
 795.502929688 -224 725.681640625 -240 612.857421875 -239 c 0
 369.563476562 -235 349.952148438 -74 333.294921875 -4 c 1
EndSplineSet
Refer: 42 79 N 1 0 0.176327 1 0 0 2
Layer: 2
EndChar

StartChar: L
Encoding: 76 76 46
Width: 679
VWidth: 79
Flags: HMW
LayerCount: 3
Back
SplineSet
49 0 m 1
 69.755859375 61 l 1
 145.05078125 57 163.693359375 89 179.157226562 137 c 1
 292.803710938 135 l 1
 290.629882812 117 288.577148438 77 323.872070312 73 c 0
 412.28515625 64 518.9296875 79 557.1640625 86 c 1
 492.11328125 29 l 1
 531.990234375 68 580.567382812 145 597.970703125 204 c 1
 671.380859375 212 l 1
 671.380859375 212 667.509765625 139 657.106445312 80 c 24
 652.874023438 56 636 0 636 0 c 1
 440 0 245 0 49 0 c 1
202.061523438 800 m 1
 277.00390625 794 332.651367188 792 415.651367188 792 c 0
 453.651367188 792 491.00390625 794 536.356445312 796 c 5
 521.071289062 732 l 5
 504.071289062 732 486.248046875 733 468.248046875 733 c 0
 418.248046875 733 409.194335938 693 403.66796875 673 c 0
 346.049804688 471 301.913085938 198 294.567382812 145 c 0
 288.456054688 99 286.758789062 44 345.758789062 44 c 1
 326.584960938 26 l 1
 132.290039062 30 l 1
 132.290039062 30 159.6953125 72 178.98046875 136 c 0
 211.7265625 265 251.223632812 489 276.905273438 663 c 1
 278.368164062 711 274.010742188 743 197.305664062 739 c 1
 202.061523438 800 l 1
EndSplineSet
Fore
SplineSet
49 0 m 1
 69.755859375 61 l 1
 145.05078125 57 163.693359375 89 179.157226562 137 c 1
 292.803710938 135 l 1
 290.629882812 117 288.577148438 77 323.872070312 73 c 0
 412.28515625 64 518.9296875 79 557.1640625 86 c 1
 492.11328125 29 l 1
 531.990234375 68 580.567382812 145 597.970703125 204 c 1
 671.380859375 212 l 1
 671.380859375 212 667.509765625 139 657.106445312 80 c 24
 652.874023438 56 636 0 636 0 c 1
 440 0 245 0 49 0 c 1
202.061523438 800 m 1
 277.00390625 794 332.651367188 792 415.651367188 792 c 0
 453.651367188 792 491.00390625 794 536.356445312 796 c 5
 521.071289062 732 l 5
 504.071289062 732 486.248046875 733 468.248046875 733 c 0
 418.248046875 733 409.194335938 693 403.66796875 673 c 0
 346.049804688 471 301.913085938 198 294.567382812 145 c 0
 288.456054688 99 286.758789062 44 345.758789062 44 c 1
 326.584960938 26 l 1
 132.290039062 30 l 1
 132.290039062 30 159.6953125 72 178.98046875 136 c 0
 211.7265625 265 251.223632812 489 276.905273438 663 c 1
 278.368164062 711 274.010742188 743 197.305664062 739 c 1
 202.061523438 800 l 1
EndSplineSet
Layer: 2
EndChar

StartChar: G
Encoding: 71 71 47
Width: 757
VWidth: 79
Flags: HMW
LayerCount: 3
Back
SplineSet
89.7216796875 299 m 0
 129.6875 537 303.4140625 802 634.4140625 802 c 0
 755.4140625 802 828.243164062 767 828.243164062 767 c 1
 822.25 716 810.6171875 616 800.211914062 574 c 1
 734.740234375 577 l 1
 718.2578125 665 669.892578125 748 625.126953125 755 c 1
 642.830078125 776 819.715820312 747 749.96484375 652 c 1
 733.670898438 656 677.955078125 720 554.955078125 720 c 0
 404.955078125 720 274.385742188 592 236.825195312 396 c 0
 203.14453125 222 249.580078125 60 436.05078125 57 c 4
 544.698242188 55 616.103515625 97 670.272460938 149 c 5
 733.454101562 116 l 5
 640.176757812 1 492.475585938 -37 385.475585938 -37 c 4
 171.475585938 -37 54.2216796875 92 89.7216796875 299 c 0
452.415039062 388 m 5
 558.415039062 388 653.415039062 388 762.415039062 388 c 5
 729.490234375 275 l 5
 675.426757812 303 635.190429688 313 453.366210938 314 c 5
 452.415039062 388 l 5
597.111328125 46 m 5
 654.744140625 146 667.01171875 329 677.415039062 388 c 5
 764.415039062 388 l 5
 765.24609375 336 752.739257812 180 733.454101562 116 c 5
 597.111328125 46 l 5
EndSplineSet
Fore
SplineSet
89.7216796875 299 m 0
 129.6875 537 303.4140625 802 634.4140625 802 c 0
 755.4140625 802 828.243164062 767 828.243164062 767 c 1
 822.25 716 810.6171875 616 800.211914062 574 c 1
 734.740234375 577 l 1
 718.2578125 665 669.892578125 748 625.126953125 755 c 1
 642.830078125 776 819.715820312 747 749.96484375 652 c 1
 733.670898438 656 677.955078125 720 554.955078125 720 c 0
 404.955078125 720 274.385742188 592 236.825195312 396 c 0
 203.14453125 222 249.580078125 60 436.05078125 57 c 4
 544.698242188 55 616.103515625 97 670.272460938 149 c 5
 733.454101562 116 l 5
 640.176757812 1 492.475585938 -37 385.475585938 -37 c 4
 171.475585938 -37 54.2216796875 92 89.7216796875 299 c 0
452.415039062 388 m 5
 558.415039062 388 653.415039062 388 762.415039062 388 c 5
 729.490234375 275 l 5
 675.426757812 303 635.190429688 313 453.366210938 314 c 5
 452.415039062 388 l 5
597.111328125 46 m 5
 654.744140625 146 667.01171875 329 677.415039062 388 c 5
 764.415039062 388 l 5
 765.24609375 336 752.739257812 180 733.454101562 116 c 5
 597.111328125 46 l 5
EndSplineSet
Layer: 2
Colour: ff0000
EndChar

StartChar: D
Encoding: 68 68 48
Width: 799
VWidth: 79
Flags: HMW
LayerCount: 3
Back
SplineSet
157.708984375 798 m 1
 347.592773438 786 497.590820312 803 587.590820312 803 c 0
 755.590820312 803 893.368164062 711 847.639648438 463 c 0
 787.038085938 142 597.705078125 4 320 0 c 0
 251.823242188 -1 107 0 33 0 c 1
 33.755859375 61 l 1
 110.993164062 51 146.577148438 77 157.393554688 127 c 0
 204.303710938 342 229.521484375 468 249.733398438 628 c 0
 256.959960938 686 249.834960938 742 156.600585938 735 c 1
 157.708984375 798 l 1
378.779296875 719 m 1
 321.166015625 483 299.598632812 338 278.038085938 142 c 1
 274.106445312 80 318.047851562 74 371.224609375 75 c 0
 562.577148438 77 680.560546875 196 717.59375 372 c 0
 765.090820312 596 670.423828125 734 503.12890625 738 c 0
 449.305664062 739 407.541992188 729 378.779296875 719 c 1
EndSplineSet
Fore
SplineSet
157.708984375 798 m 1
 347.592773438 786 497.590820312 803 587.590820312 803 c 0
 755.590820312 803 893.368164062 711 847.639648438 463 c 0
 787.038085938 142 597.705078125 4 320 0 c 0
 251.823242188 -1 107 0 33 0 c 1
 33.755859375 61 l 1
 110.993164062 51 146.577148438 77 157.393554688 127 c 0
 204.303710938 342 229.521484375 468 249.733398438 628 c 0
 256.959960938 686 249.834960938 742 156.600585938 735 c 1
 157.708984375 798 l 1
378.779296875 719 m 1
 321.166015625 483 299.598632812 338 278.038085938 142 c 1
 274.106445312 80 318.047851562 74 371.224609375 75 c 0
 562.577148438 77 680.560546875 196 717.59375 372 c 0
 765.090820312 596 670.423828125 734 503.12890625 738 c 0
 449.305664062 739 407.541992188 729 378.779296875 719 c 1
EndSplineSet
Layer: 2
Colour: ff0000
EndChar

StartChar: J
Encoding: 74 74 49
Width: 422
VWidth: 79
Flags: HMW
LayerCount: 3
Back
SplineSet
-68.03125 -193 m 1
 -32.0380859375 -142 l 1
 140.026367188 -187 158.826171875 -18 180.811523438 84 c 0
 207.147460938 205 239.110351562 460 268.377929688 643 c 0
 283.423828125 734 198.305664062 739 166.541992188 729 c 1
 166.36328125 745 170.474609375 791 170.061523438 800 c 1
 235.00390625 794 272.474609375 791 344.651367188 792 c 0
 385.651367188 792 465.827148438 793 528.23828125 801 c 1
 528.23828125 801 525.126953125 755 524.776367188 736 c 1
 475.010742188 743 411.955078125 720 399.2578125 665 c 0
 344.17578125 415 318.021484375 261 284.876953125 39 c 0
 265.424804688 -94 203.150390625 -226 35.9736328125 -227 c 0
 -19.0263671875 -227 -55.44140625 -201 -68.03125 -193 c 1
EndSplineSet
Fore
SplineSet
-68.03125 -193 m 1
 -32.0380859375 -142 l 1
 140.026367188 -187 158.826171875 -18 180.811523438 84 c 0
 207.147460938 205 239.110351562 460 268.377929688 643 c 0
 283.423828125 734 198.305664062 739 166.541992188 729 c 1
 166.36328125 745 170.474609375 791 170.061523438 800 c 1
 235.00390625 794 272.474609375 791 344.651367188 792 c 0
 385.651367188 792 465.827148438 793 528.23828125 801 c 1
 528.23828125 801 525.126953125 755 524.776367188 736 c 1
 475.010742188 743 411.955078125 720 399.2578125 665 c 0
 344.17578125 415 318.021484375 261 284.876953125 39 c 0
 265.424804688 -94 203.150390625 -226 35.9736328125 -227 c 0
 -19.0263671875 -227 -55.44140625 -201 -68.03125 -193 c 1
EndSplineSet
Layer: 2
EndChar

StartChar: K
Encoding: 75 75 50
Width: 752
VWidth: 79
Flags: HMW
LayerCount: 3
Back
SplineSet
33.28515625 64 m 1
 108.580078125 60 148.693359375 89 164.157226562 137 c 1
 273.744140625 146 l 1
 254.993164062 51 319.345703125 53 337.521484375 54 c 1
 338 0 l 1
 32 0 l 1
 33.28515625 64 l 1
163.708984375 798 m 1
 246.356445312 796 414.825195312 810 414.825195312 810 c 1
 352.267578125 597 280.67578125 208 273.567382812 145 c 0
 268.80859375 101 227.168945312 52 309.168945312 52 c 1
 284.176757812 1 l 1
 109 0 l 1
 109 0 143.6953125 72 162.98046875 136 c 0
 196.784179688 271 234.223632812 489 262.725585938 679 c 0
 265.484375 723 237.600585938 735 159.600585938 735 c 1
 163.708984375 798 l 1
280.223632812 489 m 5
 309.108398438 477 338.7578125 458 425.7578125 458 c 1
 447.521484375 468 585.91015625 629 640.018554688 692 c 0
 657.720703125 713 658.305664062 739 579.776367188 736 c 1
 581.885742188 799 l 1
 698.532226562 797 850.4140625 802 850.4140625 802 c 1
 847.953125 737 l 1
 808.12890625 738 778.895507812 731 744.252929688 699 c 0
 671.0859375 630 493.3515625 416 457.590820312 389 c 1
 426.23828125 387 349.767578125 390 296.00390625 380 c 1
 280.223632812 489 l 5
335.697265625 469 m 1
 363.462890625 462 422.405273438 456 458.16796875 466 c 1
 458.16796875 466 626.580078125 60 776.755859375 61 c 1
 778 0 l 1
 664.881835938 5 586.529296875 3 472 0 c 1
 468.05078125 57 l 1
 503.345703125 53 562.755859375 61 529.216796875 126 c 1
 512.506835938 156 374.767578125 390 335.697265625 469 c 1
EndSplineSet
Fore
SplineSet
33.28515625 64 m 1
 108.580078125 60 148.693359375 89 164.157226562 137 c 1
 273.744140625 146 l 1
 254.993164062 51 319.345703125 53 337.521484375 54 c 1
 338 0 l 1
 32 0 l 1
 33.28515625 64 l 1
163.708984375 798 m 1
 246.356445312 796 414.825195312 810 414.825195312 810 c 1
 352.267578125 597 280.67578125 208 273.567382812 145 c 0
 268.80859375 101 227.168945312 52 309.168945312 52 c 1
 284.176757812 1 l 1
 109 0 l 1
 109 0 143.6953125 72 162.98046875 136 c 0
 196.784179688 271 234.223632812 489 262.725585938 679 c 0
 265.484375 723 237.600585938 735 159.600585938 735 c 1
 163.708984375 798 l 1
280.223632812 489 m 5
 309.108398438 477 338.7578125 458 425.7578125 458 c 1
 447.521484375 468 585.91015625 629 640.018554688 692 c 0
 657.720703125 713 658.305664062 739 579.776367188 736 c 1
 581.885742188 799 l 1
 698.532226562 797 850.4140625 802 850.4140625 802 c 1
 847.953125 737 l 1
 808.12890625 738 778.895507812 731 744.252929688 699 c 0
 671.0859375 630 493.3515625 416 457.590820312 389 c 1
 426.23828125 387 349.767578125 390 296.00390625 380 c 1
 280.223632812 489 l 5
335.697265625 469 m 1
 363.462890625 462 422.405273438 456 458.16796875 466 c 1
 458.16796875 466 626.580078125 60 776.755859375 61 c 1
 778 0 l 1
 664.881835938 5 586.529296875 3 472 0 c 1
 468.05078125 57 l 1
 503.345703125 53 562.755859375 61 529.216796875 126 c 1
 512.506835938 156 374.767578125 390 335.697265625 469 c 1
EndSplineSet
Layer: 2
Colour: ff0000
EndChar

StartChar: Z
Encoding: 90 90 51
Width: 679
VWidth: 79
Flags: HMW
LayerCount: 3
Back
SplineSet
12 0 m 1
 15.46875 14 25.111328125 46 31.51953125 71 c 1
 115.5703125 128 442.569335938 542 570.78125 702 c 0
 584.955078125 720 592.248046875 733 542.248046875 733 c 0
 469.248046875 733 349.895507812 731 291.189453125 727 c 1
 261.13671875 687 249.3203125 637 237.090820312 596 c 1
 163.680664062 588 l 1
 163.680664062 588 167.551757812 661 177.955078125 720 c 0
 182.1875 744 195.23828125 801 195.23828125 801 c 1
 242.590820312 803 350.356445312 796 436.356445312 796 c 0
 519.356445312 796 721.00390625 794 798.061523438 800 c 1
 775.305664062 739 l 1
 674.4921875 672 209.047851562 74 186.874023438 56 c 1
 156.27734375 115 l 1
 181.98828125 85 264.400390625 76 319.872070312 73 c 0
 395.990234375 68 513.224609375 75 561.458984375 82 c 1
 588.159179688 120 603.270507812 166 613.970703125 204 c 1
 687.380859375 212 l 1
 687.380859375 212 683.509765625 139 673.106445312 80 c 0
 668.874023438 56 652 0 652 0 c 1
 439 0 225 0 12 0 c 1
EndSplineSet
Fore
SplineSet
12 0 m 1
 15.46875 14 25.111328125 46 31.51953125 71 c 1
 115.5703125 128 442.569335938 542 570.78125 702 c 0
 584.955078125 720 592.248046875 733 542.248046875 733 c 0
 469.248046875 733 349.895507812 731 291.189453125 727 c 1
 261.13671875 687 249.3203125 637 237.090820312 596 c 1
 163.680664062 588 l 1
 163.680664062 588 167.551757812 661 177.955078125 720 c 0
 182.1875 744 195.23828125 801 195.23828125 801 c 1
 242.590820312 803 350.356445312 796 436.356445312 796 c 0
 519.356445312 796 721.00390625 794 798.061523438 800 c 1
 775.305664062 739 l 1
 674.4921875 672 209.047851562 74 186.874023438 56 c 1
 156.27734375 115 l 1
 181.98828125 85 264.400390625 76 319.872070312 73 c 0
 395.990234375 68 513.224609375 75 561.458984375 82 c 1
 588.159179688 120 603.270507812 166 613.970703125 204 c 1
 687.380859375 212 l 1
 687.380859375 212 683.509765625 139 673.106445312 80 c 0
 668.874023438 56 652 0 652 0 c 1
 439 0 225 0 12 0 c 1
EndSplineSet
Layer: 2
EndChar

StartChar: Y
Encoding: 89 89 52
Width: 681
VWidth: 79
Flags: HMW
LayerCount: 3
Back
SplineSet
109.4140625 802 m 1
 222.532226562 797 306.885742188 799 421.4140625 802 c 1
 425.892578125 748 l 1
 348.834960938 742 316.836914062 725 332.138671875 670 c 1
 349.67578125 622 377.272460938 563 401.810546875 498 c 1
 406.639648438 463 419.17578125 415 419.17578125 415 c 1
 475.87109375 487 535.56640625 559 615.2578125 665 c 1
 653.661132812 724 602.834960938 742 534.305664062 739 c 1
 536.4140625 802 l 1
 632.356445312 796 728.708984375 798 826.4140625 802 c 1
 827.1875 744 l 1
 766.834960938 742 732.192382812 710 694.728515625 662 c 0
 571.044921875 505 493.646484375 412 442.541015625 332 c 5
 413.01171875 329 382.424804688 320 346.661132812 310 c 1
 310.646484375 412 281.166015625 483 206.786132812 668 c 1
 189.248046875 733 154.36328125 745 107.1875 744 c 1
 109.4140625 802 l 1
189.166992188 69 m 1
 259.521484375 54 287.3984375 93 303.567382812 145 c 0
 319.560546875 196 331.668945312 259 339.533203125 383 c 1
 462.649414062 395 l 5
 415.610351562 253 413.798828125 169 416.51171875 122 c 4
 418.872070312 73 437.932617188 62 491.166992188 69 c 1
 500 0 l 1
 184.823242188 -1 l 1
 189.166992188 69 l 1
EndSplineSet
Fore
SplineSet
109.4140625 802 m 1
 222.532226562 797 306.885742188 799 421.4140625 802 c 1
 425.892578125 748 l 1
 348.834960938 742 316.836914062 725 332.138671875 670 c 1
 349.67578125 622 377.272460938 563 401.810546875 498 c 1
 406.639648438 463 419.17578125 415 419.17578125 415 c 1
 475.87109375 487 535.56640625 559 615.2578125 665 c 1
 653.661132812 724 602.834960938 742 534.305664062 739 c 1
 536.4140625 802 l 1
 632.356445312 796 728.708984375 798 826.4140625 802 c 1
 827.1875 744 l 1
 766.834960938 742 732.192382812 710 694.728515625 662 c 0
 571.044921875 505 493.646484375 412 442.541015625 332 c 5
 413.01171875 329 382.424804688 320 346.661132812 310 c 1
 310.646484375 412 281.166015625 483 206.786132812 668 c 1
 189.248046875 733 154.36328125 745 107.1875 744 c 1
 109.4140625 802 l 1
189.166992188 69 m 1
 259.521484375 54 287.3984375 93 303.567382812 145 c 0
 319.560546875 196 331.668945312 259 339.533203125 383 c 1
 462.649414062 395 l 5
 415.610351562 253 413.798828125 169 416.51171875 122 c 4
 418.872070312 73 437.932617188 62 491.166992188 69 c 1
 500 0 l 1
 184.823242188 -1 l 1
 189.166992188 69 l 1
EndSplineSet
Layer: 2
Colour: ff0000
EndChar

StartChar: X
Encoding: 88 88 53
Width: 813
VWidth: 79
Flags: HMW
LayerCount: 3
Back
SplineSet
160.23828125 801 m 1
 284.297851562 790 423.651367188 792 524.061523438 800 c 1
 531.776367188 736 l 1
 429.600585938 735 384.192382812 710 407.612304688 650 c 1
 422.146484375 619 502.875976562 453 509.583984375 440 c 1
 536.2890625 444 l 1
 587.71484375 350 674.6953125 72 807.990234375 68 c 1
 811.470703125 -3 l 1
 436.470703125 -3 l 1
 435.755859375 61 l 1
 482.874023438 56 571.932617188 62 532.801757812 152 c 0
 507.028320312 210 457.306640625 325 423.533203125 383 c 1
 394.533203125 383 l 1
 364.934570312 459 310.979492188 550 277.438476562 632 c 1
 248.487304688 706 221.600585938 735 158.423828125 734 c 1
 160.23828125 801 l 1
35.9326171875 62 m 1
 111.755859375 61 141.337890625 104 179.919921875 147 c 0
 229.793945312 203 356.243164062 353 421.0546875 437 c 1
 490.0546875 437 l 1
 549.869140625 504 630.327148438 586 671.497070312 638 c 0
 720.60546875 701 684.71875 730 612.895507812 731 c 1
 617.23828125 801 l 1
 713.827148438 793 833.827148438 793 922.23828125 801 c 1
 922.305664062 739 l 1
 823.305664062 739 818.900390625 697 754.8515625 623 c 0
 689.451171875 547 597.641601562 446 548.47265625 394 c 1
 485.180664062 381 l 1
 420.77734375 322 354.260742188 234 298.741210938 163 c 1
 265.454101562 116 253.345703125 53 342.05078125 57 c 1
 347.470703125 -3 l 1
 27.470703125 -3 l 1
 35.9326171875 62 l 1
EndSplineSet
Fore
SplineSet
160.23828125 801 m 1
 284.297851562 790 423.651367188 792 524.061523438 800 c 1
 531.776367188 736 l 1
 429.600585938 735 384.192382812 710 407.612304688 650 c 1
 422.146484375 619 502.875976562 453 509.583984375 440 c 1
 536.2890625 444 l 1
 587.71484375 350 674.6953125 72 807.990234375 68 c 1
 811.470703125 -3 l 1
 436.470703125 -3 l 1
 435.755859375 61 l 1
 482.874023438 56 571.932617188 62 532.801757812 152 c 0
 507.028320312 210 457.306640625 325 423.533203125 383 c 1
 394.533203125 383 l 1
 364.934570312 459 310.979492188 550 277.438476562 632 c 1
 248.487304688 706 221.600585938 735 158.423828125 734 c 1
 160.23828125 801 l 1
35.9326171875 62 m 1
 111.755859375 61 141.337890625 104 179.919921875 147 c 0
 229.793945312 203 356.243164062 353 421.0546875 437 c 1
 490.0546875 437 l 1
 549.869140625 504 630.327148438 586 671.497070312 638 c 0
 720.60546875 701 684.71875 730 612.895507812 731 c 1
 617.23828125 801 l 1
 713.827148438 793 833.827148438 793 922.23828125 801 c 1
 922.305664062 739 l 1
 823.305664062 739 818.900390625 697 754.8515625 623 c 0
 689.451171875 547 597.641601562 446 548.47265625 394 c 1
 485.180664062 381 l 1
 420.77734375 322 354.260742188 234 298.741210938 163 c 1
 265.454101562 116 253.345703125 53 342.05078125 57 c 1
 347.470703125 -3 l 1
 27.470703125 -3 l 1
 35.9326171875 62 l 1
EndSplineSet
Layer: 2
Colour: ff0000
EndChar

StartChar: N
Encoding: 78 78 54
Width: 926
VWidth: 79
Flags: HMW
LayerCount: 3
Back
SplineSet
25.1669921875 69 m 5
 95.521484375 54 146.9296875 79 166.565429688 162 c 4
 194.137695312 273 233.4609375 479 258.377929688 643 c 4
 273.423828125 734 228.305664062 739 156.541992188 729 c 5
 156.36328125 745 160.474609375 791 160.061523438 800 c 5
 257.474609375 791 318.297851562 790 433.00390625 794 c 5
 489.373046875 677 702.903320312 266 768.685546875 140 c 4
 772.275390625 132 701.337890625 104 704.927734375 96 c 5
 737.209960938 177 795.336914062 518 808.377929688 643 c 4
 817.423828125 734 776.305664062 739 704.541992188 729 c 5
 704.36328125 745 708.474609375 791 708.061523438 800 c 5
 773.00390625 794 792.474609375 791 864.651367188 792 c 4
 905.651367188 792 975.827148438 793 1038.23828125 801 c 5
 1038.23828125 801 1035.12695312 755 1034.77636719 736 c 5
 985.010742188 743 933.955078125 720 919.2578125 665 c 4
 872.6953125 486 827.91015625 215 798 0 c 5
 769.294921875 -4 752.118164062 -5 700.178710938 -16 c 5
 698.001953125 -17 l 5
 565.963867188 255 469.641601562 446 356.612304688 650 c 5
 312.521484375 468 266.796875 186 264.509765625 139 c 4
 263.166992188 69 317.932617188 62 371.166992188 69 c 5
 370 0 l 5
 20.8232421875 -1 l 5
 25.1669921875 69 l 5
EndSplineSet
Fore
SplineSet
25.1669921875 69 m 5
 95.521484375 54 146.9296875 79 166.565429688 162 c 4
 194.137695312 273 233.4609375 479 258.377929688 643 c 4
 273.423828125 734 228.305664062 739 156.541992188 729 c 5
 156.36328125 745 160.474609375 791 160.061523438 800 c 5
 257.474609375 791 318.297851562 790 433.00390625 794 c 5
 489.373046875 677 702.903320312 266 768.685546875 140 c 4
 772.275390625 132 701.337890625 104 704.927734375 96 c 5
 737.209960938 177 795.336914062 518 808.377929688 643 c 4
 817.423828125 734 776.305664062 739 704.541992188 729 c 5
 704.36328125 745 708.474609375 791 708.061523438 800 c 5
 773.00390625 794 792.474609375 791 864.651367188 792 c 4
 905.651367188 792 975.827148438 793 1038.23828125 801 c 5
 1038.23828125 801 1035.12695312 755 1034.77636719 736 c 5
 985.010742188 743 933.955078125 720 919.2578125 665 c 4
 872.6953125 486 827.91015625 215 798 0 c 5
 769.294921875 -4 752.118164062 -5 700.178710938 -16 c 5
 698.001953125 -17 l 5
 565.963867188 255 469.641601562 446 356.612304688 650 c 5
 312.521484375 468 266.796875 186 264.509765625 139 c 4
 263.166992188 69 317.932617188 62 371.166992188 69 c 5
 370 0 l 5
 20.8232421875 -1 l 5
 25.1669921875 69 l 5
EndSplineSet
Layer: 2
EndChar

StartChar: M
Encoding: 77 77 55
Width: 1093
VWidth: 79
Flags: HMW
LayerCount: 3
Back
SplineSet
160.061523438 800 m 1
 257.474609375 791 307.297851562 790 422.00390625 794 c 1
 448.368164062 711 531.869140625 504 580.71484375 350 c 1
 590.958984375 289 602.734375 214 619.033203125 176 c 1
 596.454101562 116 l 1
 523.750976562 95 l 1
 502.326171875 189 381.916992188 578 346.612304688 650 c 1
 344.025390625 641 381.254882812 682 378.66796875 673 c 0
 336.576171875 491 286.267578125 183 284.509765625 139 c 0
 283.166992188 69 357.932617188 62 411.166992188 69 c 1
 410 0 l 1
 30.8232421875 -1 l 1
 35.1669921875 69 l 1
 105.521484375 54 166.9296875 79 186.565429688 162 c 0
 214.137695312 273 253.4609375 479 278.377929688 643 c 0
 293.423828125 734 208.305664062 739 156.541992188 729 c 1
 156.36328125 745 160.474609375 791 160.061523438 800 c 1
527.44921875 150 m 5
 674.888671875 368 851.373046875 677 919.00390625 794 c 1
 1032.29785156 790 1107.47460938 791 1208.06152344 800 c 1
 1206.94824219 771 1205.36328125 745 1206.54199219 729 c 1
 1138.30566406 739 1080.42382812 734 1063.37792969 643 c 0
 1030.4609375 479 997.137695312 273 985.565429688 162 c 0
 975.9296875 79 1012.52148438 54 1088.16699219 69 c 1
 1087.82324219 -1 l 1
 676 0 l 1
 679.166992188 69 l 1
 729.932617188 62 817.166992188 69 840.509765625 139 c 0
 854.796875 186 917.336914062 518 937.428710938 700 c 1
 928.666015625 690 988.12890625 738 979.366210938 728 c 1
 854.861328125 555 752.359375 365 597.454101562 116 c 1
 527.44921875 150 l 5
EndSplineSet
Fore
SplineSet
160.061523438 800 m 1
 257.474609375 791 307.297851562 790 422.00390625 794 c 1
 448.368164062 711 531.869140625 504 580.71484375 350 c 1
 590.958984375 289 602.734375 214 619.033203125 176 c 1
 596.454101562 116 l 1
 523.750976562 95 l 1
 502.326171875 189 381.916992188 578 346.612304688 650 c 1
 344.025390625 641 381.254882812 682 378.66796875 673 c 0
 336.576171875 491 286.267578125 183 284.509765625 139 c 0
 283.166992188 69 357.932617188 62 411.166992188 69 c 1
 410 0 l 1
 30.8232421875 -1 l 1
 35.1669921875 69 l 1
 105.521484375 54 166.9296875 79 186.565429688 162 c 0
 214.137695312 273 253.4609375 479 278.377929688 643 c 0
 293.423828125 734 208.305664062 739 156.541992188 729 c 1
 156.36328125 745 160.474609375 791 160.061523438 800 c 1
527.44921875 150 m 5
 674.888671875 368 851.373046875 677 919.00390625 794 c 1
 1032.29785156 790 1107.47460938 791 1208.06152344 800 c 1
 1206.94824219 771 1205.36328125 745 1206.54199219 729 c 1
 1138.30566406 739 1080.42382812 734 1063.37792969 643 c 0
 1030.4609375 479 997.137695312 273 985.565429688 162 c 0
 975.9296875 79 1012.52148438 54 1088.16699219 69 c 1
 1087.82324219 -1 l 1
 676 0 l 1
 679.166992188 69 l 1
 729.932617188 62 817.166992188 69 840.509765625 139 c 0
 854.796875 186 917.336914062 518 937.428710938 700 c 1
 928.666015625 690 988.12890625 738 979.366210938 728 c 1
 854.861328125 555 752.359375 365 597.454101562 116 c 1
 527.44921875 150 l 5
EndSplineSet
Layer: 2
EndChar

StartChar: grave
Encoding: 96 96 56
Width: 496
VWidth: 0
Flags: HMW
LayerCount: 3
Back
SplineSet
235.220703125 920 m 9
 235.69921875 866 l 17
 346.34375 881 536.920898438 958 608.032226562 1004 c 9
 564.607421875 1098 l 17
 489.969726562 1032 331.099609375 942 235.220703125 920 c 9
EndSplineSet
Fore
SplineSet
235.220703125 920 m 9
 235.69921875 866 l 17
 346.34375 881 536.920898438 958 608.032226562 1004 c 9
 564.607421875 1098 l 17
 489.969726562 1032 331.099609375 942 235.220703125 920 c 9
EndSplineSet
Layer: 2
EndChar

StartChar: question
Encoding: 63 63 58
Width: 542
VWidth: 153
Flags: HMW
LayerCount: 3
Back
SplineSet
209.071289062 732 m 1
 321.071289062 732 l 1
 304.900390625 697 285.556640625 627 276.385742188 592 c 1
 189.26953125 580 l 1
 186.912109375 612 197.900390625 697 209.071289062 732 c 1
209.071289062 732 m 1
 267.890625 765 361.23828125 801 448.23828125 801 c 0
 567.23828125 801 653.423828125 734 598.26953125 580 c 0
 530.296875 393 358.833007812 345 269.072265625 318 c 1
 262.661132812 310 327.651367188 378 325.182617188 364 c 0
 313.721679688 299 314.615234375 219 314.913085938 198 c 1
 201.560546875 196 l 1
 209.083984375 233 226.951171875 340 232.182617188 364 c 1
 286.475585938 377 432.53125 400 476.805664062 532 c 0
 512.143554688 636 483.307617188 722 361.071289062 732 c 0
 307.776367188 736 260.192382812 710 227.194335938 693 c 1
 209.071289062 732 l 1
EndSplineSet
Refer: 10 46 N 1 0 0.176327 1 117.353 2 2
Fore
SplineSet
209.071289062 732 m 1
 321.071289062 732 l 1
 304.900390625 697 285.556640625 627 276.385742188 592 c 1
 189.26953125 580 l 1
 186.912109375 612 197.900390625 697 209.071289062 732 c 1
209.071289062 732 m 1
 267.890625 765 361.23828125 801 448.23828125 801 c 0
 567.23828125 801 653.423828125 734 598.26953125 580 c 0
 530.296875 393 358.833007812 345 269.072265625 318 c 1
 262.661132812 310 327.651367188 378 325.182617188 364 c 0
 313.721679688 299 314.615234375 219 314.913085938 198 c 1
 201.560546875 196 l 1
 209.083984375 233 226.951171875 340 232.182617188 364 c 1
 286.475585938 377 432.53125 400 476.805664062 532 c 0
 512.143554688 636 483.307617188 722 361.071289062 732 c 0
 307.776367188 736 260.192382812 710 227.194335938 693 c 1
 209.071289062 732 l 1
EndSplineSet
Refer: 10 46 N 1 0 0.176327 1 117.353 2 2
Layer: 2
EndChar

StartChar: quotesingle
Encoding: 39 39 59
Width: 192
VWidth: 79
Flags: HMW
LayerCount: 3
Back
SplineSet
153.540039062 746 m 4
 159.651367188 792 198.940429688 822 236.940429688 822 c 4
 282.940429688 822 302.1796875 795 295.302734375 756 c 4
 288.426757812 717 260.3125 688 221.725585938 679 c 5
 204.3125 688 147.076171875 698 153.540039062 746 c 4
146.090820312 596 m 5
 154.030273438 607 188.19921875 659 186.71875 730 c 13
 247.479492188 757 l 29
 251.836914062 725 301.76953125 787 295.302734375 756 c 4
 283.958007812 703 198.915039062 595 170.387695312 575 c 5
 146.090820312 596 l 5
EndSplineSet
Fore
SplineSet
153.540039062 746 m 4
 159.651367188 792 198.940429688 822 236.940429688 822 c 4
 282.940429688 822 302.1796875 795 295.302734375 756 c 4
 288.426757812 717 260.3125 688 221.725585938 679 c 5
 204.3125 688 147.076171875 698 153.540039062 746 c 4
146.090820312 596 m 5
 154.030273438 607 188.19921875 659 186.71875 730 c 13
 247.479492188 757 l 29
 251.836914062 725 301.76953125 787 295.302734375 756 c 4
 283.958007812 703 198.915039062 595 170.387695312 575 c 5
 146.090820312 596 l 5
EndSplineSet
Layer: 2
EndChar

StartChar: exclam
Encoding: 33 33 62
Width: 330
VWidth: 153
Flags: HMW
LayerCount: 3
Back
SplineSet
221.59765625 752 m 1
 252.830078125 776 312.827148438 793 346.474609375 791 c 5
 346.474609375 791 353.83203125 759 343.900390625 697 c 0
 315.629882812 531 269.999023438 414 212.205078125 211 c 1
 138.323242188 206 l 1
 185.354492188 399 219.26953125 580 221.59765625 752 c 1
EndSplineSet
Refer: 10 46 N 1 0 0.176327 1 37.2367 -10 2
Fore
SplineSet
221.59765625 752 m 1
 252.830078125 776 312.827148438 793 346.474609375 791 c 5
 346.474609375 791 353.83203125 759 343.900390625 697 c 0
 315.629882812 531 269.999023438 414 212.205078125 211 c 1
 138.323242188 206 l 1
 185.354492188 399 219.26953125 580 221.59765625 752 c 1
EndSplineSet
Refer: 10 46 N 1 0 0.176327 1 37.2367 -10 2
Layer: 2
EndChar

StartChar: parenright
Encoding: 41 41 63
Width: 371
VWidth: 153
Flags: HMW
LayerCount: 3
Back
SplineSet
35.2490234375 -95 m 1
 139.524414062 37 232.211914062 241.00390625 262.883789062 402 c 0
 289.745117188 543 285.723632812 696 212.530273438 814 c 5
 283.522460938 865 l 5
 328.059570312 817 412.431640625 683 393.223632812 489 c 0
 371.197265625 262 246.521484375 54 93.548828125 -133 c 1
 35.2490234375 -95 l 1
EndSplineSet
Fore
SplineSet
35.2490234375 -95 m 1
 139.524414062 37 232.211914062 241.00390625 262.883789062 402 c 0
 289.745117188 543 285.723632812 696 212.530273438 814 c 5
 283.522460938 865 l 5
 328.059570312 817 412.431640625 683 393.223632812 489 c 0
 371.197265625 262 246.521484375 54 93.548828125 -133 c 1
 35.2490234375 -95 l 1
EndSplineSet
Layer: 2
EndChar

StartChar: parenleft
Encoding: 40 40 64
Width: 371
VWidth: 153
Flags: HMW
LayerCount: 3
Back
SplineSet
122.436523438 235 m 0
 144.462890625 462 267.723632812 696 420.696289062 883 c 1
 485.701171875 849 l 1
 381.426757812 717 284.166015625 483 257.77734375 322 c 0
 235.678710938 191 218.173828125 18 299.604492188 -110 c 1
 228.08203125 -164 l 1
 178.193359375 -118 103.229492188 41 122.436523438 235 c 0
EndSplineSet
Fore
SplineSet
122.436523438 235 m 0
 144.462890625 462 267.723632812 696 420.696289062 883 c 1
 485.701171875 849 l 1
 381.426757812 717 284.166015625 483 257.77734375 322 c 0
 235.678710938 191 218.173828125 18 299.604492188 -110 c 1
 228.08203125 -164 l 1
 178.193359375 -118 103.229492188 41 122.436523438 235 c 0
EndSplineSet
Layer: 2
EndChar

StartChar: hyphen
Encoding: 45 45 65
Width: 569
VWidth: 153
Flags: HW
LayerCount: 3
Back
SplineSet
96.8349609375 328 m 5
 129.349609375 433 l 5
 320.5859375 423 431.5859375 423 605.349609375 433 c 5
 598.588867188 406 584.830078125 362 576.834960938 328 c 5
 96.8349609375 328 l 5
EndSplineSet
Fore
SplineSet
96.8349609375 328 m 5
 129.349609375 433 l 5
 320.5859375 423 431.5859375 423 605.349609375 433 c 5
 598.588867188 406 584.830078125 362 576.834960938 328 c 5
 96.8349609375 328 l 5
EndSplineSet
Layer: 2
EndChar

StartChar: underscore
Encoding: 95 95 66
Width: 669
VWidth: 153
Flags: HW
LayerCount: 3
Back
SplineSet
39.1767578125 1 m 5
 69.927734375 96 l 5
 261.1640625 86 472.1640625 86 645.927734375 96 c 5
 639.166992188 69 627.171875 35 619.176757812 1 c 5
 39.1767578125 1 l 5
EndSplineSet
Fore
SplineSet
39.1767578125 1 m 5
 69.927734375 96 l 5
 261.1640625 86 472.1640625 86 645.927734375 96 c 5
 639.166992188 69 627.171875 35 619.176757812 1 c 5
 39.1767578125 1 l 5
EndSplineSet
Layer: 2
EndChar

StartChar: emdash
Encoding: 257 8212 67
Width: 669
VWidth: 153
Flags: HW
LayerCount: 3
Back
SplineSet
39 328 m 1
 53 423 l 1
 246 413 457 413 629 423 c 1
 627 396 621 362 619 328 c 1
 39 328 l 1
EndSplineSet
Fore
SplineSet
39 328 m 1
 53 423 l 1
 246 413 457 413 629 423 c 1
 627 396 621 362 619 328 c 1
 39 328 l 1
EndSplineSet
Layer: 2
EndChar

